<svg width="318" height="318" viewBox="0 0 318 318" fill="none" xmlns="http://www.w3.org/2000/svg">
<path d="M28.8108 255.036L61.3613 254.883L93.9054 254.826L159 254.718L224.095 254.826L256.639 254.877L289.183 255.036L256.639 255.189L224.095 255.246L159 255.354L93.9054 255.246L61.3613 255.189L28.8108 255.036Z" fill="#263238"/>
<path d="M159 283.179C223.901 283.179 276.514 279.287 276.514 274.485C276.514 269.683 223.901 265.791 159 265.791C94.0989 265.791 41.4863 269.683 41.4863 274.485C41.4863 279.287 94.0989 283.179 159 283.179Z" fill="#EBEBEB"/>
<path d="M184.44 204.156V204.245C184.44 204.245 184.44 204.283 184.44 204.309C184.44 204.334 184.44 204.41 184.408 204.48V204.595C184.388 204.676 184.373 204.759 184.364 204.843C184.364 204.9 184.364 204.957 184.332 205.021C184.3 205.085 184.287 205.288 184.256 205.441C184.224 205.593 184.16 205.956 184.109 206.261L183.823 207.813C183.791 207.978 183.76 208.156 183.728 208.341C183.696 208.525 183.639 208.837 183.588 209.098C183.537 209.358 183.486 209.683 183.429 209.994C183.391 210.211 183.346 210.433 183.308 210.662C183.187 211.343 183.06 212.068 182.914 212.844C182.911 212.863 182.911 212.882 182.914 212.901C182.761 213.766 182.596 214.695 182.418 215.668C182.373 215.922 182.322 216.176 182.271 216.431C182.22 216.685 182.169 216.965 182.125 217.232C182.125 217.398 182.068 217.569 182.03 217.741C181.788 219.094 181.527 220.527 181.247 222.04C181.152 222.549 181.063 223.064 180.967 223.586C180.783 224.603 180.592 225.646 180.395 226.721C180.344 226.969 180.3 227.217 180.261 227.472C179.973 229.028 179.679 230.648 179.377 232.331C179.339 232.503 179.314 232.674 179.282 232.846C179.136 233.635 178.989 234.43 178.85 235.244C178.831 235.306 178.818 235.37 178.811 235.434L178.602 236.592C178.322 238.144 178.033 239.732 177.737 241.356C177.66 241.756 177.584 242.163 177.514 242.577C177.368 243.397 177.215 244.224 177.062 245.057C176.872 246.094 176.681 247.137 176.49 248.199C176.299 249.261 176.108 250.323 175.911 251.379C175.809 251.92 175.714 252.46 175.612 253.001C175.498 253.637 175.377 254.273 175.263 254.953H120.293C127.073 226.785 132.79 204.073 132.79 204.073L184.44 204.156Z" fill="#263238"/>
<path d="M176.134 210.516C173.382 225.356 170.601 240.196 167.79 255.036H167.026C169.946 240.16 172.954 225.309 175.93 210.452C175.975 210.312 176.172 210.37 176.134 210.516Z" fill="#263238"/>
<path d="M184.44 204.156C184.44 204.156 184.44 204.188 184.44 204.245C184.44 204.302 184.44 204.283 184.44 204.309C184.44 204.334 184.44 204.41 184.408 204.48V204.595C184.388 204.676 184.373 204.759 184.364 204.843C184.364 204.9 184.364 204.957 184.332 205.021C184.3 205.085 184.281 205.288 184.256 205.441C184.23 205.593 184.16 205.956 184.109 206.261C184.02 206.713 183.931 207.228 183.823 207.813C183.791 207.978 183.759 208.156 183.728 208.341C183.696 208.525 183.639 208.837 183.588 209.098C183.537 209.358 183.486 209.683 183.429 209.994C183.391 210.211 183.346 210.433 183.308 210.662C183.181 211.343 183.054 212.068 182.914 212.844C182.911 212.863 182.911 212.882 182.914 212.901C182.755 213.766 182.589 214.682 182.411 215.655C182.36 215.909 182.316 216.17 182.271 216.431C182.227 216.692 182.169 216.965 182.125 217.232C182.087 217.398 182.061 217.569 182.03 217.741C181.782 219.089 181.521 220.527 181.247 222.04C181.152 222.549 181.063 223.064 180.967 223.586C180.777 224.603 180.586 225.646 180.395 226.721C180.344 226.969 180.3 227.217 180.261 227.472C179.969 229.036 179.674 230.656 179.377 232.331C179.339 232.503 179.314 232.674 179.282 232.846C179.136 233.635 178.989 234.43 178.85 235.244C178.831 235.306 178.818 235.37 178.811 235.434L178.602 236.592C178.313 238.144 178.025 239.732 177.737 241.356C177.66 241.756 177.584 242.163 177.514 242.577C177.361 243.397 177.215 244.224 177.062 245.057C176.872 246.094 176.681 247.137 176.49 248.199C176.299 249.261 176.102 250.323 175.911 251.379C175.809 251.92 175.714 252.46 175.612 253.001C175.498 253.637 175.377 254.273 175.256 254.953H147.666L145.46 232.363L145.383 231.561L145.294 230.696L144.862 226.276L144.486 222.46L142.693 204.156H184.44Z" fill="#455A64"/>
<path d="M215.668 255.036H156.386C156.284 249.579 156.176 244.3 156.043 239.32C156.043 239.2 156.043 239.079 156.043 238.958C156.043 238.958 149.123 234.862 145.396 231.65C144.762 231.129 144.179 230.55 143.653 229.92C141.268 226.88 138.877 215.191 133.929 204.194H206.433C218.212 227.052 217.385 245.42 215.668 255.036Z" fill="#263238"/>
<path d="M141.93 229.113C145.453 230.556 148.627 232.776 151.756 234.919C155.012 237.139 157.995 239.708 161.124 242.093C161.245 242.189 161.124 242.386 160.997 242.297C157.696 240.192 154.243 238.341 150.98 236.172C147.8 234.067 144.518 232.019 141.771 229.367C141.663 229.265 141.783 229.049 141.93 229.113Z" fill="#455A64"/>
<path d="M141.485 208.716C141.904 210.974 142.451 213.213 142.941 215.458C143.393 217.563 143.73 219.706 144.289 221.818C144.744 223.832 145.768 225.674 147.24 227.122C148.067 227.892 148.977 228.572 149.854 229.272C150.331 229.653 150.84 230.016 151.336 230.404C151.273 230.105 151.222 229.768 151.164 229.494L150.726 226.95C150.408 225.042 150.09 223.134 149.81 221.226C149.237 217.48 148.716 213.696 147.902 209.988C147.899 209.96 147.907 209.932 147.923 209.909C147.939 209.886 147.963 209.869 147.99 209.861C148.017 209.854 148.046 209.856 148.072 209.867C148.098 209.879 148.118 209.899 148.131 209.925C149.066 213.601 150.096 217.239 150.91 220.946C151.311 222.759 152.729 231.758 152.818 232.394C152.907 233.03 152.939 233.711 152.964 234.366C153.05 235.035 153.05 235.713 152.964 236.382C152.952 236.412 152.931 236.438 152.903 236.456C152.876 236.474 152.844 236.484 152.812 236.484C152.779 236.484 152.747 236.474 152.72 236.456C152.693 236.438 152.672 236.412 152.659 236.382C152.387 235.761 152.197 235.106 152.093 234.436C151.928 233.8 151.781 233.164 151.667 232.49C151.622 232.261 151.591 232.019 151.559 231.777C150.675 231.237 149.854 230.505 149.015 229.933C148.175 229.361 147.215 228.661 146.375 227.949C144.816 226.635 143.691 224.878 143.151 222.912C142.608 220.798 142.255 218.639 142.095 216.463C141.809 213.919 141.599 211.375 141.243 208.831C141.23 208.608 141.453 208.563 141.485 208.716Z" fill="#455A64"/>
<path d="M201.809 224.438C200.862 223.948 197.198 224.82 190.52 223.681C189.214 223.512 187.974 223.008 186.92 222.218C185.184 220.8 183.868 218.517 182.812 216.564C181.558 214.365 180.592 212.014 179.937 209.568C179.905 209.416 179.695 209.492 179.721 209.632C179.969 211.012 180.102 212.392 180.471 213.76C180.833 215.043 181.294 216.295 181.851 217.506C182.856 219.77 184.033 222.199 186.068 223.732C188.199 225.335 191.156 225.64 193.751 225.818C195.239 225.92 201.097 225.761 201.885 224.928C201.915 224.892 201.937 224.85 201.95 224.804C201.962 224.759 201.965 224.712 201.958 224.666C201.95 224.619 201.934 224.575 201.908 224.536C201.882 224.497 201.849 224.463 201.809 224.438Z" fill="#455A64"/>
<path d="M146.636 122.595C140.531 131.62 98.1221 185.973 91.9847 187.086C76.3454 189.903 62.0227 184.542 67.9312 171.071C74.8127 155.388 113.087 124.293 138.591 110.524C156.857 100.66 152.64 113.685 146.636 122.595Z" fill="#ECC4BE"/>
<path d="M125.928 152.564L92.6652 137.3C92.6652 137.3 123.441 115.905 137.821 109.392C152.844 102.606 158.917 106.575 146.089 124.23C133.503 141.605 125.928 152.564 125.928 152.564Z" fill="#455A64"/>
<path d="M110.378 125.457C110.308 125.498 110.24 125.543 110.174 125.591L136.053 138.222L136.18 138.044L110.378 125.457ZM103.223 130.157C103.155 130.196 103.089 130.239 103.026 130.285L131.741 144.277L131.862 144.105L103.223 130.157ZM96.1696 134.902L95.9724 135.036L127.461 150.401C127.493 150.344 127.537 150.287 127.575 150.23L96.1696 134.902Z" fill="white"/>
<path d="M126.341 145.809C125.577 145.374 124.792 144.977 123.988 144.62L121.565 143.431C119.931 142.629 118.283 141.853 116.623 141.09C113.322 139.557 110.022 138.012 106.695 136.543C105.78 136.136 104.857 135.729 103.935 135.354C103.013 134.978 101.957 134.616 100.984 134.215C100.927 134.215 100.895 134.279 100.952 134.31C101.76 134.711 102.536 135.182 103.337 135.582C104.139 135.983 104.997 136.403 105.83 136.804C107.48 137.58 109.133 138.347 110.791 139.106C114.054 140.588 117.317 142.082 120.611 143.494C121.533 143.895 122.455 144.277 123.378 144.671C124.3 145.065 125.286 145.561 126.297 145.879C126.348 145.911 126.392 145.835 126.341 145.809Z" fill="#263238"/>
<path d="M146.14 124.211C133.503 141.605 125.928 152.564 125.928 152.564L115.294 147.673L151.75 106.969C154.548 108.883 153.225 114.48 146.14 124.211Z" fill="#263238"/>
<path d="M127.34 216.342H213.136C213.136 216.342 200.028 134.476 168.4 106.479C164.495 103.019 155.68 103.808 149.956 106.664C147.902 107.688 140.531 117.997 138.425 127.753C136.32 137.51 127.105 216.049 127.34 216.342Z" fill="#455A64"/>
<path d="M205.339 181.387L167.268 105.671C167.673 105.9 168.052 106.171 168.4 106.479C186.348 122.366 198.33 155.604 205.339 181.387Z" fill="#263238"/>
<path d="M164.724 104.654H155.998C156.405 104.577 156.806 104.508 157.213 104.444H163.694C164.037 104.501 164.368 104.571 164.724 104.654ZM173.692 111.802H145.53C145.485 111.872 145.44 111.942 145.39 112.012H173.838L173.692 111.802ZM179.352 119.161H141.389L141.294 119.371H179.492L179.352 119.161ZM183.982 126.519H138.693C138.693 126.589 138.654 126.659 138.635 126.729H184.109L183.982 126.519ZM187.951 133.878H137.376C137.376 133.948 137.376 134.018 137.344 134.088H188.059C188.021 134.018 187.983 133.948 187.951 133.878ZM191.436 141.237H136.346C136.346 141.306 136.346 141.376 136.346 141.446H191.544C191.493 141.376 191.436 141.306 191.436 141.237ZM194.546 148.601H135.398C135.398 148.671 135.398 148.741 135.398 148.805H194.616C194.616 148.735 194.565 148.665 194.54 148.601H194.546ZM197.351 155.96H134.425C134.425 156.03 134.425 156.093 134.425 156.163H197.414C197.395 156.093 197.37 156.03 197.344 155.96H197.351ZM199.895 163.318H133.503C133.503 163.388 133.503 163.458 133.503 163.528H199.971C199.952 163.452 199.933 163.388 199.908 163.318H199.895ZM202.248 170.677H132.593C132.593 170.747 132.593 170.817 132.593 170.887H202.318C202.299 170.817 202.248 170.747 202.248 170.677ZM204.41 178.035H131.703C131.703 178.105 131.703 178.175 131.703 178.245H204.474L204.41 178.035ZM206.407 185.394H130.819C130.819 185.464 130.819 185.534 130.819 185.604H206.503C206.446 185.534 206.427 185.464 206.414 185.394H206.407ZM208.245 192.753H129.948C129.948 192.822 129.948 192.892 129.948 192.962H208.303C208.284 192.892 208.271 192.822 208.252 192.753H208.245ZM209.937 200.111H129.108C129.108 200.181 129.108 200.251 129.108 200.321H209.988C209.975 200.251 209.963 200.181 209.944 200.111H209.937ZM211.489 207.47H128.249C128.249 207.54 128.249 207.609 128.249 207.679H211.565L211.489 207.47ZM212.876 214.828H127.454V215.038H212.933C212.907 214.968 212.895 214.898 212.882 214.828H212.876Z" fill="white"/>
<path d="M183.282 108.54C204.906 116.534 258.152 137.751 260.874 150.166C262.859 159.293 222.231 164.966 221.074 163.49C220.164 162.32 182.437 132.93 169.138 117.113C157.575 103.375 176.369 105.983 183.282 108.54Z" fill="#ECC4BE"/>
<path d="M199.621 145.949L228.108 126.233C228.108 126.233 194.069 110.537 178.741 106.644C162.765 102.587 157.48 107.548 173.196 122.691C188.676 137.586 199.621 145.949 199.621 145.949Z" fill="#455A64"/>
<path d="M207.05 116.986L184.968 133.598C185.025 133.643 185.07 133.694 185.127 133.732L207.279 117.075L207.05 116.986ZM214.86 120.318L190.628 138.546L190.787 138.686L215.089 120.414C215.013 120.382 214.968 120.344 214.86 120.318ZM222.6 123.708L196.435 143.424C196.487 143.472 196.542 143.517 196.6 143.558L222.816 123.842C222.741 123.803 222.669 123.758 222.6 123.708Z" fill="white"/>
<path d="M220.247 124.879C219.484 125.298 218.765 125.826 218.04 126.316C217.315 126.806 216.552 127.321 215.801 127.817C214.287 128.828 212.787 129.871 211.292 130.914C208.315 133.007 205.32 135.086 202.388 137.23C201.58 137.815 200.772 138.406 199.977 139.017C199.182 139.627 198.349 140.359 197.516 141.001C197.465 141.039 197.516 141.109 197.58 141.078C198.33 140.581 199.132 140.149 199.888 139.653C200.645 139.157 201.434 138.635 202.197 138.107C203.698 137.077 205.186 136.034 206.649 134.978C209.568 132.899 212.5 130.825 215.375 128.682L217.779 126.882C218.619 126.246 219.509 125.661 220.291 124.974C220.342 124.923 220.304 124.847 220.247 124.879Z" fill="#263238"/>
<path d="M196.988 143.691C196.187 143.017 195.443 142.28 194.667 141.58C193.891 140.88 193.09 140.187 192.307 139.488C190.775 138.126 189.223 136.785 187.684 135.423C184.574 132.663 181.464 129.897 178.385 127.105C176.636 125.515 174.919 123.88 173.113 122.354L173.075 122.392C174.493 123.925 176.019 125.368 177.527 126.806C177.209 126.609 176.891 126.405 176.585 126.17C176.28 125.934 175.911 125.686 175.587 125.426C175.263 125.165 174.951 124.872 174.582 124.631C174.525 124.592 174.474 124.669 174.512 124.713C175.084 125.388 175.758 125.97 176.509 126.437C176.878 126.685 177.266 126.907 177.654 127.117L178.08 127.314C179.428 128.586 180.785 129.858 182.15 131.13C185.203 133.946 188.318 136.702 191.493 139.398C192.371 140.136 193.255 140.861 194.145 141.586C195.036 142.311 196.015 143.011 196.925 143.755C196.969 143.806 197.033 143.736 196.988 143.691Z" fill="#263238"/>
<path d="M152.685 122.379C157.728 123.015 165.405 114.626 168.088 108.184C168.273 107.738 167.173 103.401 166.079 98.0648C165.443 94.8276 164.807 91.2024 164.438 87.857C164.368 87.1702 143.971 95.1583 143.971 95.1583C143.971 95.1583 146.77 101.957 147.348 107.796C147.39 108.259 147.39 108.725 147.348 109.188C147.348 109.252 147.348 109.328 147.348 109.417C147.189 112.07 147.813 121.749 152.685 122.379Z" fill="#ECC4BE"/>
<path d="M149.511 109.303C148.792 109.401 148.067 109.44 147.342 109.417C147.342 109.328 147.342 109.252 147.342 109.182C147.39 108.721 147.39 108.257 147.342 107.796C146.77 101.964 143.978 95.1583 143.978 95.1583C143.978 95.1583 160.514 88.6711 163.859 87.8888C163.617 91.8257 161.862 107.732 149.511 109.303Z" fill="#263238"/>
<path d="M162.18 61.9019C166.409 68.4845 168.464 90.3756 164.648 96.4558C159.114 105.277 147.132 109.347 138.902 102.027C130.921 94.9357 128.726 66.3602 133.28 60.5345C139.92 51.9485 155.922 52.152 162.18 61.9019Z" fill="#ECC4BE"/>
<path d="M148.589 81.0137C148.589 80.9564 148.716 81.0773 148.716 81.1345C148.818 82.6164 149.18 84.3145 150.56 84.6452C150.605 84.6452 150.605 84.7343 150.56 84.7279C148.907 84.6643 148.449 82.432 148.589 81.0137Z" fill="#263238"/>
<path d="M149.753 79.3474C152.106 78.934 152.761 83.6658 150.586 84.0538C148.411 84.4417 147.781 79.6972 149.753 79.3474Z" fill="#263238"/>
<path d="M139.57 82.044C139.57 81.9931 139.462 82.133 139.475 82.1903C139.723 83.6531 139.761 85.3703 138.502 86.0381C138.464 86.0381 138.502 86.1335 138.502 86.1144C140.117 85.6819 140.041 83.4114 139.57 82.044Z" fill="#263238"/>
<path d="M138.044 80.7148C135.665 80.861 136.136 85.6183 138.343 85.4848C140.55 85.3512 140.047 80.5939 138.044 80.7148Z" fill="#263238"/>
<path d="M151.323 76.956C150.681 76.8566 150.044 76.725 149.415 76.5617C148.712 76.5213 148.042 76.2509 147.507 75.7921C147.371 75.6153 147.298 75.3984 147.298 75.1752C147.298 74.952 147.371 74.7351 147.507 74.5583C148.143 73.8269 149.078 73.8014 149.975 73.9223C150.88 74.0445 151.707 74.4977 152.297 75.1943C152.435 75.3616 152.52 75.5667 152.54 75.783C152.561 75.9992 152.515 76.2166 152.41 76.4067C152.305 76.5968 152.145 76.7509 151.952 76.8489C151.758 76.9469 151.539 76.9842 151.323 76.956Z" fill="#263238"/>
<path d="M135.888 78.5841C136.505 78.3674 137.11 78.1169 137.7 77.8337C138.375 77.6595 138.974 77.2684 139.405 76.7207C139.506 76.5214 139.539 76.294 139.498 76.0742C139.456 75.8544 139.343 75.6546 139.176 75.5059C138.425 74.9081 137.49 75.0607 136.632 75.3851C135.766 75.6783 135.04 76.2838 134.597 77.0832C134.506 77.2725 134.472 77.4842 134.5 77.6923C134.528 77.9005 134.615 78.096 134.752 78.2552C134.889 78.4144 135.069 78.5302 135.271 78.5886C135.473 78.6471 135.687 78.6455 135.888 78.5841Z" fill="#263238"/>
<path d="M151.654 93.9754C151.355 94.3697 151.069 94.8912 150.541 95.0057C149.994 95.0714 149.44 95.0215 148.913 94.8594C148.903 94.8567 148.891 94.8575 148.881 94.8616C148.871 94.8657 148.863 94.8728 148.857 94.8821C148.852 94.8913 148.849 94.9021 148.85 94.9129C148.851 94.9237 148.855 94.9339 148.862 94.9421C149.112 95.2009 149.427 95.3877 149.774 95.4828C150.121 95.5779 150.487 95.5779 150.834 95.4827C151.122 95.3621 151.369 95.1589 151.542 94.8986C151.715 94.6383 151.807 94.3325 151.807 94.0199C151.82 93.9372 151.699 93.9181 151.654 93.9754Z" fill="#263238"/>
<path d="M149.505 89.7968C149.214 90.4285 148.795 90.9931 148.275 91.455C147.755 91.9169 147.145 92.2662 146.484 92.4808C145.907 92.6774 145.305 92.7888 144.696 92.8115C144.58 92.8209 144.463 92.8209 144.347 92.8115H144.022C143.942 92.8069 143.865 92.7766 143.803 92.7251C143.741 92.6736 143.698 92.6035 143.679 92.5253C143.673 92.4746 143.673 92.4233 143.679 92.3726V92.2454C143.494 91.1197 143.367 89.3898 143.367 89.3898C142.979 89.6506 141.008 90.8908 140.963 90.2929C140.575 85.3703 140.149 79.8943 140.804 74.9144C140.811 74.8832 140.828 74.8552 140.853 74.8352C140.878 74.8151 140.909 74.8042 140.941 74.8042C140.973 74.8042 141.004 74.8151 141.029 74.8352C141.053 74.8552 141.071 74.8832 141.078 74.9144C141.631 79.6336 141.357 84.4163 141.841 89.1608C142.542 88.7123 143.301 88.3634 144.099 88.1242C144.27 88.1242 144.289 91.4759 144.41 91.972C144.409 91.9889 144.409 92.0059 144.41 92.0228C146.318 92.0228 147.692 91.2342 149.358 89.7078C149.46 89.587 149.581 89.676 149.505 89.7968Z" fill="#263238"/>
<path d="M145.281 92.15C146.014 92.8684 146.918 93.3874 147.908 93.6574C148.452 93.7885 149.024 93.7462 149.543 93.5365C150.675 93.0659 150.554 91.9847 150.21 91.0943C150.023 90.6228 149.782 90.1746 149.492 89.7587C148.379 90.9842 146.904 91.822 145.281 92.15Z" fill="#263238"/>
<path d="M147.908 93.6573C148.452 93.7885 149.024 93.7462 149.543 93.5365C150.675 93.0659 150.554 91.9847 150.21 91.0943C148.97 91.3995 147.851 92.4235 147.908 93.6573Z" fill="#FF98B9"/>
<path d="M165.398 78.5587C161.544 79.5445 158.943 70.189 158.943 70.189C158.943 70.189 152.844 71.0094 147.495 64.0007C147.495 64.0007 141.574 71.0412 134.985 71.9125C124.656 73.2672 120.84 60.5154 123.664 56.763C127.664 51.4397 138.591 53.812 138.591 53.812C138.591 53.812 151.311 45.4486 158.466 53.5448C158.466 53.5448 164.775 51.8213 167.408 58.5502C170.041 65.279 168.273 77.821 165.398 78.5587Z" fill="#263238"/>
<path d="M160.647 70.844C157.689 71.2609 154.675 70.6838 152.08 69.2032C149.428 67.6004 147.215 64.5476 147.12 61.3804C147.12 61.2086 146.833 61.2341 146.852 61.3804C147.196 64.8275 148.449 68.0774 151.374 70.1381C152.711 71.102 154.277 71.6985 155.917 71.8681C157.556 72.0377 159.211 71.7746 160.717 71.1048C160.738 71.0859 160.752 71.0618 160.76 71.0351C160.768 71.0084 160.768 70.9802 160.761 70.9533C160.754 70.9265 160.739 70.9021 160.719 70.8829C160.699 70.8636 160.674 70.8502 160.647 70.844Z" fill="#263238"/>
<path d="M166.632 54.3653C163.929 52.5463 160.876 53.0933 158.008 54.1427C157.849 54.1999 157.951 54.467 158.103 54.3907C160.851 53.1187 164.336 54.13 166.575 55.9934C168.813 57.8569 169.36 60.8016 169.583 63.5173C170.037 68.76 168.533 73.9851 165.36 78.1835C165.309 78.2471 165.411 78.3298 165.462 78.2662C167.322 76.0479 168.71 73.4734 169.542 70.7001C170.373 67.9268 170.629 65.013 170.295 62.1372C169.933 59.3197 169.1 56.0443 166.632 54.3653Z" fill="#263238"/>
<path d="M139.119 54.149C137.262 52.5632 134.888 51.7144 132.447 51.764C129.505 51.9008 126.717 53.1193 124.618 55.1857C123.795 56.0411 123.213 57.0983 122.929 58.2506C122.645 59.403 122.671 60.6098 123.002 61.7492C123.677 64.4459 125.712 66.532 127.868 68.1092C127.873 68.1152 127.88 68.1199 127.888 68.123C127.896 68.1261 127.904 68.1275 127.912 68.1271C127.92 68.1267 127.928 68.1246 127.936 68.1208C127.943 68.117 127.949 68.1117 127.954 68.1053C127.96 68.0988 127.963 68.0913 127.965 68.0833C127.967 68.0753 127.967 68.067 127.966 68.0589C127.964 68.0508 127.961 68.0432 127.956 68.0365C127.951 68.0298 127.945 68.0243 127.938 68.0202C126.106 66.4493 124.465 64.5286 123.848 62.1181C123.519 60.9961 123.513 59.8038 123.831 58.6786C124.15 57.5534 124.78 56.541 125.648 55.7581C129.076 52.6926 135.029 51.109 138.953 54.3335C138.978 54.3425 139.005 54.3439 139.031 54.3374C139.057 54.3309 139.08 54.3169 139.098 54.2971C139.116 54.2772 139.127 54.2525 139.131 54.2262C139.135 54.1998 139.13 54.1729 139.119 54.149Z" fill="#263238"/>
<path d="M162.644 80.8483C162.644 80.8483 165.614 72.8474 169.125 73.7378C172.636 74.6282 171.631 85.3639 168.375 87.6408C167.976 87.9581 167.517 88.1923 167.026 88.3294C166.535 88.4666 166.021 88.5039 165.516 88.4393C165.01 88.3747 164.522 88.2094 164.082 87.9532C163.641 87.697 163.256 87.355 162.95 86.9476L162.644 80.8483Z" fill="#ECC4BE"/>
<path d="M168.763 76.8097C168.774 76.8068 168.786 76.8078 168.796 76.8126C168.807 76.8174 168.816 76.8258 168.821 76.8362C168.826 76.8466 168.828 76.8585 168.825 76.8699C168.823 76.8813 168.816 76.8915 168.807 76.8988C166.543 78.5842 165.824 81.2744 165.525 83.9456C166.034 82.8136 166.925 82.0376 168.406 82.6037C168.421 82.6125 168.433 82.6257 168.439 82.6414C168.446 82.6571 168.448 82.6745 168.445 82.6912C168.441 82.708 168.432 82.7232 168.42 82.7349C168.407 82.7465 168.392 82.754 168.375 82.7563C167.894 82.7309 167.417 82.8548 167.009 83.111C166.602 83.3671 166.283 83.7431 166.098 84.1873C165.793 84.935 165.569 85.7132 165.43 86.5087C165.373 86.7631 164.934 86.7504 164.947 86.4642C164.95 86.4431 164.95 86.4217 164.947 86.4006C164.05 83.1952 165.36 78.0308 168.763 76.8097Z" fill="#263238"/>
<path d="M250.819 203.081C244.771 224.184 227.465 241.33 223.923 243.575C220.908 245.483 219.337 246.463 219.337 246.463C213.995 250.024 210.319 249.058 210.319 249.058C210.319 249.058 205.352 254.991 201.269 252.581C196.683 249.903 204.55 242.1 206.255 235.161C210.153 219.261 211.254 195.583 211.922 190.883L250.819 203.081Z" fill="#ECC4BE"/>
<path d="M222.047 221.373C220.806 226.028 219.706 230.633 217.843 235.097C215.795 239.995 213.009 244.364 210.281 248.88C210.268 248.906 210.265 248.937 210.272 248.966C210.279 248.995 210.297 249.021 210.321 249.038C210.345 249.056 210.375 249.064 210.405 249.062C210.435 249.06 210.463 249.047 210.484 249.026C216.723 241.629 221.264 231.046 222.454 221.468C222.486 221.233 222.11 221.144 222.047 221.373Z" fill="#263238"/>
<path d="M231.981 222.333C230.525 226.785 227.911 234.62 219.21 246.374C219.178 246.412 219.21 246.469 219.274 246.431C225.794 239.829 230.348 231.542 232.426 222.498C232.496 222.212 232.083 222.04 231.981 222.333Z" fill="#263238"/>
<path d="M209.74 215.712C209.428 213.442 208.233 213.588 206.172 217.105C204.111 220.622 198.947 236.287 193.637 234.023C188.326 231.758 195.933 209.759 199.812 204.169C203.692 198.578 211.896 190.883 211.896 190.883C211.298 195.462 210.847 206.7 209.74 215.712Z" fill="#ECC4BE"/>
<path d="M260.862 150.166C265.104 163.49 253.91 193.204 250.819 203.081C249.471 207.387 210.153 195.888 211.623 191.29C214.637 181.883 222.435 164.762 221.061 163.49C219.973 162.479 257.001 138.063 260.862 150.166Z" fill="#ECC4BE"/>
<path d="M231.835 155.477C231.313 155.68 230.792 155.839 230.283 156.113C229.774 156.386 229.233 156.602 228.731 156.876C227.757 157.422 226.83 158.047 225.958 158.746C225.079 159.427 224.246 160.166 223.465 160.959C223.058 161.366 222.664 161.786 222.288 162.231C221.908 162.639 221.575 163.089 221.296 163.573C221.282 163.596 221.275 163.622 221.275 163.649C221.275 163.676 221.282 163.702 221.296 163.725C221.296 163.725 221.296 163.77 221.334 163.776C221.5 163.846 221.595 163.706 221.716 163.605L222.314 163.051C222.734 162.663 223.141 162.25 223.586 161.856C224.432 161.073 225.322 160.323 226.238 159.617C227.154 158.911 228.095 158.243 229.049 157.601C229.526 157.276 229.997 156.965 230.48 156.628C230.963 156.291 231.44 155.992 231.936 155.706C232.032 155.616 231.956 155.426 231.835 155.477Z" fill="#263238"/>
<path d="M89.676 148.932C83.316 153.384 63.9498 170.728 67.8549 180.204C71.7599 189.681 86.6677 189.452 107.516 185.68L89.676 148.932Z" fill="#ECC4BE"/>
<path d="M89.1163 149.346C97.6578 142.229 110.066 133.585 115.148 133.859C120.477 134.145 139.17 135.913 143.38 137.719C147.59 139.526 159.7 151.311 160.94 155.216C161.932 158.345 155.788 161.296 147.991 156.278C140.696 151.584 139.182 150.102 136.804 149.282C134.425 148.461 125.05 150.261 123.918 153.798C123.25 155.884 125.953 161.512 129.712 162.702C133.471 163.891 137.344 161.658 142.642 161.945C147.94 162.231 153.028 167.459 152.004 169.176C150.98 170.893 148.608 169.971 141.376 172.388C136.727 173.946 131.2 176.744 123.333 181.374C115.275 186.113 103.617 186.03 103.617 186.03L89.1163 149.346Z" fill="#ECC4BE"/>
<path d="M148.315 157.168C161.035 161.15 155.165 180.007 142.413 176.019C129.661 172.032 135.57 153.174 148.315 157.168Z" fill="#FA9E15"/>
<path opacity="0.1" d="M148.315 157.168C161.035 161.15 155.165 180.007 142.413 176.019C129.661 172.032 135.57 153.174 148.315 157.168Z" fill="black"/>
<path d="M147.12 156.793C159.248 160.609 153.371 179.447 141.217 175.644C129.063 171.841 134.972 152.99 147.12 156.793Z" fill="#FA9E15"/>
<path opacity="0.1" d="M136.238 165.678C135.875 169.119 137.452 172.706 141.72 174.041C151.807 177.221 156.685 161.544 146.617 158.396L146.42 158.339C155.833 161.519 151.152 176.293 141.535 173.285C139.9 172.84 138.473 171.835 137.504 170.444C136.536 169.053 136.087 167.366 136.238 165.678Z" fill="black"/>
<g opacity="0.1">
<path d="M146 160.348C146.081 160.381 146.146 160.444 146.181 160.523C146.217 160.602 146.22 160.693 146.191 160.774L145.994 161.29C146.791 161.683 147.454 162.302 147.902 163.07C147.942 163.122 147.968 163.183 147.979 163.247C147.99 163.311 147.986 163.377 147.965 163.439C147.929 163.524 147.861 163.592 147.775 163.628C147.69 163.663 147.594 163.664 147.507 163.63C147.421 163.599 147.35 163.535 147.31 163.452C146.943 162.78 146.389 162.23 145.714 161.868L144.315 165.462C146.108 166.626 146.643 167.675 146.153 168.928C145.631 170.289 144.111 170.836 142.489 170.238L142.101 171.237C142.086 171.278 142.062 171.317 142.031 171.349C142 171.382 141.964 171.408 141.923 171.426C141.882 171.444 141.838 171.455 141.794 171.456C141.749 171.457 141.704 171.45 141.663 171.434C141.621 171.418 141.583 171.394 141.55 171.363C141.518 171.333 141.491 171.296 141.473 171.255C141.455 171.214 141.445 171.17 141.443 171.126C141.442 171.081 141.45 171.037 141.465 170.995L141.853 169.984C140.814 169.485 139.971 168.655 139.456 167.624C139.423 167.577 139.403 167.523 139.396 167.467C139.39 167.41 139.397 167.353 139.418 167.3C139.454 167.218 139.52 167.152 139.602 167.115C139.684 167.079 139.777 167.074 139.863 167.103C139.948 167.135 140.019 167.199 140.06 167.281C140.479 168.206 141.201 168.96 142.108 169.418L143.526 165.767C141.764 164.597 141.243 163.579 141.739 162.301C142.235 161.022 143.755 160.456 145.332 161.029L145.523 160.545C145.538 160.499 145.563 160.456 145.596 160.419C145.63 160.383 145.67 160.355 145.716 160.336C145.761 160.317 145.81 160.308 145.859 160.311C145.908 160.313 145.957 160.326 146 160.348ZM143.831 165.112L145.186 161.614C143.914 161.156 142.827 161.582 142.464 162.504C142.101 163.427 142.33 164.088 143.831 165.112ZM144.092 166.11L142.718 169.653C143.99 170.124 145.129 169.704 145.51 168.731C145.892 167.758 145.644 167.128 144.092 166.11Z" fill="black"/>
</g>
<path d="M115.148 133.859C121.431 132.154 134.73 130.857 143.583 134.317C149.568 136.657 158.059 157.982 154.955 160.495C151.851 163.007 149.231 160.641 145.797 156.679C144.525 155.235 139.538 145.79 136.854 146.197C132.988 146.776 123.696 152.335 123.696 152.335L115.148 133.859Z" fill="#ECC4BE"/>
<path d="M155.616 159C156.57 154.16 153.944 148.722 151.025 143.647C150.974 143.571 150.853 143.647 150.897 143.711C151.641 144.983 155.54 154.217 155.521 159.006C155.521 159.07 155.604 159.057 155.616 159Z" fill="#263238"/>
<path d="M115.148 133.859C121.431 132.154 134.73 130.857 143.583 134.317C149.568 136.657 152.977 157.156 149.873 159.668C146.77 162.18 142.82 159 139.99 153.791C139.074 152.106 137.446 144.887 134.781 145.269C130.914 145.854 121.425 147.374 121.425 147.374L115.148 133.859Z" fill="#ECC4BE"/>
<path d="M127.105 146.28C128.103 146.019 128.453 145.924 129.458 145.676C130.463 145.428 131.461 145.205 132.479 145.04C133.356 144.822 134.263 144.756 135.163 144.843C136.005 145.034 136.761 145.494 137.319 146.153C138.635 147.59 139.1 149.683 139.678 151.489C140.314 153.511 142 157.34 144.366 159.083C144.99 159.589 145.714 159.96 146.49 160.17C147.058 160.355 147.664 160.394 148.252 160.285C150.637 159.547 151.114 156.672 151.088 154.3C151.037 149.848 149.625 145.396 148.01 141.332C147.616 140.333 147.196 139.341 146.776 138.349C146.37 137.182 145.719 136.116 144.868 135.22C143.373 133.84 139.532 133.128 138.343 132.892C138.254 132.892 138.298 132.74 138.387 132.759C139.831 133.019 143.819 133.229 146.134 135.557C146.973 136.409 147.406 137.618 147.876 138.699C148.347 139.78 148.869 140.982 149.314 142.146C150.205 144.395 150.917 146.711 151.444 149.072C151.921 151.311 152.341 153.798 151.966 156.068C151.641 158.046 150.274 160.037 148.296 160.622C146.636 161.124 144.983 160.1 144.258 159.598C143.546 159.098 142.904 158.506 142.35 157.836C141.208 156.244 140.183 154.571 139.284 152.831C138.444 151.114 138.069 149.155 137.09 147.514C136.871 147.114 136.576 146.762 136.22 146.478C135.864 146.195 135.455 145.984 135.016 145.86C134.127 145.727 133.222 145.727 132.333 145.86C130.619 145.929 128.916 146.154 127.245 146.534C126.806 146.643 126.685 146.369 127.105 146.28Z" fill="#263238"/>
<path d="M110.308 135.086C111.987 134.094 121.565 128.09 125.33 127.035C129.095 125.979 143.812 123.937 146.757 127.289C150.459 131.506 139.405 135.023 134.457 136.11C129.509 137.198 125.146 142.737 125.146 142.737L110.308 135.086Z" fill="#ECC4BE"/>
<path d="M142.089 133.783C140.43 134.086 138.787 134.472 137.166 134.94C135.6 135.276 134.06 135.729 132.561 136.295C131.128 136.963 129.813 137.861 128.669 138.953C128.09 139.481 127.556 140.034 127.028 140.607C126.5 141.179 125.928 141.917 125.343 142.515C125.279 142.578 125.343 142.687 125.438 142.617C126.56 141.539 127.75 140.534 129 139.608C130.27 138.622 131.656 137.795 133.128 137.147C136.059 135.875 139.22 135.239 142.159 133.967C142.28 133.935 142.203 133.764 142.089 133.783Z" fill="#263238"/>
<path d="M149.117 159.929C150.249 160.565 151.527 161.201 152.869 161.143C153.442 161.127 153.998 160.941 154.465 160.609C154.71 160.432 154.924 160.217 155.101 159.973C155.313 159.727 155.43 159.414 155.432 159.089C155.432 159 155.553 159.006 155.534 159.089C155.504 159.27 155.487 159.453 155.483 159.636C155.456 159.788 155.414 159.938 155.356 160.081C155.245 160.365 155.078 160.625 154.866 160.844C154.395 161.326 153.773 161.634 153.104 161.716C151.521 161.932 150.134 161.08 149.047 160.037C149.04 160.032 149.033 160.026 149.029 160.019C149.024 160.012 149.02 160.004 149.019 159.996C149.017 159.988 149.017 159.979 149.018 159.971C149.02 159.963 149.023 159.955 149.028 159.948C149.032 159.941 149.038 159.934 149.045 159.93C149.052 159.925 149.06 159.921 149.068 159.92C149.076 159.918 149.085 159.918 149.093 159.919C149.102 159.921 149.109 159.924 149.117 159.929Z" fill="#263238"/>
<path d="M123.613 144.709C122.23 146.704 120.977 148.786 119.861 150.942C118.794 153.085 118.04 155.371 117.622 157.728C117.221 160.272 117.431 162.816 117.488 165.411C117.541 166.636 117.493 167.864 117.342 169.081C117.187 170.141 116.918 171.181 116.541 172.184C115.627 174.442 114.165 176.435 112.286 177.985C112.216 178.048 112.286 178.163 112.388 178.112C114.164 176.88 115.649 175.274 116.737 173.406C117.825 171.537 118.49 169.453 118.684 167.3C118.913 164.667 118.468 162.027 118.684 159.388C118.906 156.985 119.436 154.621 120.261 152.354C121.165 149.707 122.317 147.152 123.702 144.722C123.703 144.716 123.703 144.71 123.701 144.704C123.7 144.699 123.697 144.693 123.693 144.688C123.69 144.684 123.685 144.68 123.68 144.677C123.675 144.674 123.67 144.672 123.664 144.671C123.652 144.669 123.64 144.672 123.63 144.679C123.621 144.687 123.615 144.697 123.613 144.709Z" fill="#263238"/>
<path d="M100.38 140.734C95.44 143.747 90.735 147.13 86.3052 150.853C81.8239 154.51 77.7701 158.662 74.2212 163.229C72.2578 165.819 70.5416 168.587 69.095 171.497C69.0632 171.555 69.1459 171.599 69.1841 171.542C70.6602 169.072 72.2983 166.703 74.0876 164.451C75.8587 162.214 77.7504 160.076 79.7544 158.046C83.8527 153.96 88.2513 150.186 92.9132 146.757C95.5336 144.785 97.9376 142.903 100.545 140.925C100.787 140.734 100.66 140.556 100.38 140.734Z" fill="#263238"/>
<path d="M173.863 262.331C173.819 262.592 173.768 262.852 173.717 263.12C173.762 262.859 173.812 262.592 173.857 262.331H173.863Z" fill="#EBEBEB"/>
<path d="M72.9746 192.021C64.3822 203.654 55.4274 217.156 53.2586 231.746C53.2586 231.962 53.5893 232.038 53.6402 231.816C54.6322 227.837 55.9075 223.935 57.4562 220.139C63.1039 218.58 68.6434 217.308 71.6136 211.699C74.6346 205.937 74.253 198.426 73.6806 192.148C73.6042 191.811 73.14 191.792 72.9746 192.021Z" fill="#98C85B"/>
<path d="M57.5071 220.056C61.3676 211.4 66.3221 202.706 72.6185 195.583C72.663 195.532 72.7266 195.583 72.6884 195.653C68.5671 200.741 65.4317 206.248 62.3725 211.864C65.2154 208.977 68.3318 206.395 71.0285 203.329C71.0793 203.272 71.1684 203.329 71.1175 203.418C68.4399 206.598 65.5207 210.115 62.0354 212.494C61.0941 214.215 60.1486 215.943 59.1989 217.677C59.4342 217.544 59.6759 217.429 59.9175 217.308C59.9557 217.308 59.9939 217.353 59.9557 217.372C59.6886 217.506 59.4215 217.652 59.148 217.766C58.6964 218.587 58.2512 219.401 57.7806 220.221C57.6788 220.368 57.4244 220.209 57.5071 220.056Z" fill="#263238"/>
<path d="M60.3819 217.003C62.6918 215.714 64.8951 214.242 66.9708 212.602C67.0281 212.558 67.1107 212.634 67.0535 212.685C65.0373 214.413 62.8311 215.907 60.4772 217.137C60.3691 217.219 60.2737 217.067 60.3819 217.003Z" fill="#263238"/>
<path d="M52.2538 229.596C52.2538 229.774 52.5718 229.768 52.5654 229.596C52.6099 224.788 52.5654 219.961 52.6417 215.133C53.8756 212.653 56.515 211.279 58.3657 209.289C59.6864 207.832 60.8365 206.23 61.7938 204.512C64.0043 200.41 65.3568 195.9 65.7688 191.258C66.2776 186.119 64.3251 169.163 62.1563 169.748C61.0369 170.054 57.399 178.455 56.4323 181.235C54.869 185.815 53.7259 190.528 53.017 195.316C51.2489 206.586 51.3952 218.199 52.2538 229.596Z" fill="#98C85B"/>
<path d="M52.2156 208.85C52.4764 202.77 53.8501 196.632 55.1285 190.736C56.5086 184.376 58.124 178.404 61.3931 172.738C61.4567 172.629 61.6093 172.738 61.5584 172.833C59.3766 177.238 57.6873 181.871 56.5213 186.647C56.7439 186.303 57.011 185.979 57.2336 185.655C57.3227 185.528 57.5326 185.655 57.4499 185.782C57.157 186.294 56.814 186.775 56.4259 187.219C56.4189 187.222 56.4113 187.224 56.4037 187.224C56.396 187.224 56.3884 187.222 56.3814 187.219C55.2557 191.76 54.4734 196.403 53.7611 201.04L53.9137 200.862C53.9213 200.855 53.9309 200.851 53.9408 200.851C53.9508 200.851 53.9606 200.854 53.9687 200.859C53.9767 200.865 53.9826 200.874 53.9853 200.883C53.988 200.893 53.9875 200.903 53.9837 200.912C53.901 201.065 53.7992 201.218 53.7102 201.37C53.3604 203.724 53.036 206.07 52.7117 208.398C56.922 204.792 60.5027 200.601 62.5188 195.405C62.5188 195.405 62.5633 195.405 62.557 195.405C60.579 200.792 57.469 205.581 52.6735 208.856L52.4064 210.732C52.4064 210.859 52.1838 210.828 52.1838 210.7C52.1838 210.147 52.1838 209.594 52.2347 209.04C52.152 208.996 52.152 208.907 52.2156 208.85Z" fill="#263238"/>
<path d="M54.1872 200.041C57.3672 195.265 60.3755 190.628 62.7223 185.349C62.7223 185.292 62.8495 185.349 62.8241 185.394C60.8525 190.641 58.0859 195.952 54.3526 200.162C54.2762 200.251 54.1236 200.136 54.1872 200.041Z" fill="#263238"/>
<path d="M58.442 184.173C59.7649 181.826 61.1641 179.543 62.4106 177.177C62.4488 177.113 62.5378 177.177 62.5124 177.234C61.4898 179.73 60.1929 182.104 58.6455 184.313C58.5565 184.44 58.3657 184.306 58.442 184.173Z" fill="#263238"/>
<path d="M57.9268 185.19V185.229C57.9268 185.229 57.876 185.19 57.9268 185.19Z" fill="#263238"/>
<path d="M48.972 215.68C48.9207 218.863 48.5543 222.033 47.8781 225.144C47.929 225.487 47.9735 225.831 48.0244 226.181C49.0091 222.735 49.5791 219.185 49.7225 215.604C49.751 215.555 49.7659 215.499 49.7659 215.442C49.7659 215.385 49.751 215.329 49.7225 215.28C49.8633 210.488 49.5117 205.695 48.6731 200.976C47.1848 192.142 43.9349 183.67 37.7784 177.05C37.7275 177.006 37.6673 176.974 37.6024 176.958C37.5374 176.941 37.4695 176.939 37.4038 176.952C37.338 176.966 37.2763 176.994 37.2233 177.035C37.1702 177.077 37.1273 177.129 37.0979 177.19C34.6111 183.511 35.4761 191.048 37.594 197.351C38.7456 200.765 40.3912 203.992 42.4784 206.929C44.59 209.925 47.2866 212.424 48.972 215.68Z" fill="#98C85B"/>
<path d="M38.5034 180.033C44.3419 189.528 48.3996 200.734 48.8957 211.922C48.8957 212.125 48.5713 212.176 48.5459 211.972C48.406 210.968 48.2533 209.969 48.0943 208.977C45.6839 206.662 43.2035 204.22 41.4735 201.345C41.4735 201.294 41.5181 201.237 41.5562 201.281C43.5621 203.736 45.709 206.072 47.9862 208.277C47.5622 205.801 47.064 203.365 46.4916 200.97C46.3326 200.792 46.18 200.607 46.0273 200.423C45.8747 200.238 46.0973 200.136 46.199 200.251C46.3008 200.365 46.2944 200.359 46.339 200.41C45.5182 197.121 44.5009 193.884 43.2925 190.717C41.8043 188.949 40.1443 187.416 39.0631 185.28C39.0631 185.229 39.1076 185.19 39.1394 185.235C40.0108 186.456 40.8503 187.684 41.8361 188.816C42.2304 189.267 42.6629 189.693 43.0699 190.132C41.7233 186.7 40.1269 183.371 38.2935 180.172C38.2799 180.145 38.2768 180.113 38.2848 180.083C38.2928 180.053 38.3114 180.028 38.3371 180.01C38.3628 179.993 38.3938 179.986 38.4244 179.99C38.455 179.994 38.4831 180.009 38.5034 180.033Z" fill="#263238"/>
<path d="M39.6864 191.716C41.5944 194.26 43.7187 196.677 45.474 199.303C45.5249 199.38 45.4168 199.456 45.3532 199.399C43.1017 197.281 41.1937 194.393 39.5592 191.767C39.5083 191.709 39.6292 191.646 39.6864 191.716Z" fill="#263238"/>
<path d="M45.7411 199.888L45.8174 199.971C45.8747 200.028 45.7856 200.111 45.7347 200.06L45.6521 199.977C45.5948 199.92 45.6839 199.838 45.7411 199.888Z" fill="#263238"/>
<path d="M29.3641 198.241C29.8284 203.113 32.3915 208.939 35.5206 212.691C36.8962 214.323 38.5965 215.651 40.5132 216.59C42.6756 217.658 44.9652 218.892 47.1785 219.77C48.2421 222.478 49.0325 225.287 49.538 228.152C49.6144 227.911 49.6843 227.656 49.7543 227.408C48.3169 215.07 40.3351 204.512 30.121 197.758C30.0418 197.705 29.9489 197.676 29.8535 197.675C29.7581 197.673 29.6645 197.7 29.5842 197.752C29.5038 197.803 29.4402 197.877 29.4011 197.964C29.362 198.051 29.3491 198.147 29.3641 198.241Z" fill="#98C85B"/>
<path d="M32.8875 201.885C32.8176 201.822 32.8875 201.695 32.9956 201.752C38.6063 205.926 43.0803 211.441 46.0082 217.792C46.0782 217.957 45.8492 218.103 45.7538 217.938C45.2768 217.105 44.7935 216.297 44.3037 215.502C41.9696 215.063 39.7627 213.423 38.0328 211.864C37.9882 211.826 38.0328 211.756 38.1027 211.801C38.9938 212.61 39.9831 213.305 41.0474 213.868C42.0014 214.351 43.0254 214.656 44.0112 215.044C43.1462 213.671 42.2494 212.354 41.3082 211.082C38.7943 210.123 36.4366 208.796 34.3122 207.145C34.2422 207.094 34.3122 206.986 34.3758 207.031C36.4801 208.305 38.6497 209.469 40.8757 210.516C39.4433 208.638 37.8993 206.847 36.252 205.155C35.457 204.735 34.6556 204.315 33.886 203.883C33.8224 203.851 33.886 203.743 33.9369 203.762C34.5738 203.989 35.1821 204.29 35.7495 204.658C34.8528 203.704 33.9051 202.782 32.8875 201.885Z" fill="#263238"/>
<path d="M33.1038 206.147C33.2437 206.227 33.3757 206.321 33.4981 206.427C33.5363 206.458 33.4981 206.509 33.4472 206.49C33.3056 206.425 33.1694 206.348 33.0402 206.261C32.9702 206.217 33.0338 206.102 33.1038 206.147Z" fill="#263238"/>
<path d="M65.6924 254.871H37.7084L39.9662 229.386L40.4623 223.764H62.9386L63.4346 229.386L65.6924 254.871Z" fill="#455A64"/>
<path d="M63.4346 229.386H39.9662L40.4623 223.764H62.9386L63.4346 229.386Z" fill="#263238"/>
<path d="M64.2805 219.84H39.1267V225.405H64.2805V219.84Z" fill="#455A64"/>
<path d="M106.517 206.166C106.727 205.085 106.854 204.118 106.962 203.088C107.071 202.057 107.121 201.033 107.115 199.984C107.12 198.905 107.027 197.828 106.835 196.766C106.634 195.535 106.142 194.37 105.398 193.369C104.935 192.803 104.341 192.358 103.668 192.072C103.332 191.931 102.979 191.832 102.619 191.779C102.282 191.73 101.941 191.715 101.601 191.735C100.343 191.831 99.1461 192.313 98.173 193.115C97.2981 193.815 96.5551 194.666 95.9788 195.627C95.379 196.573 94.9707 197.628 94.7767 198.731C94.6488 199.39 94.7016 200.071 94.9294 200.703C95.0864 201.11 95.3636 201.461 95.7244 201.707C96.0674 201.935 96.4647 202.066 96.8755 202.089C97.2981 202.11 97.7179 202.009 98.0839 201.796C98.3982 201.598 98.6653 201.333 98.8662 201.021C99.1847 200.519 99.4008 199.959 99.5022 199.373C99.6837 198.334 99.6837 197.271 99.5022 196.231C99.3425 195.19 98.9631 194.195 98.3892 193.312C98.0826 192.844 97.6683 192.456 97.1808 192.18C96.6763 191.905 96.0935 191.808 95.5272 191.907C94.5129 192.134 93.5948 192.672 92.9005 193.446C91.5829 194.897 90.5322 196.57 89.7968 198.387C90.6604 196.667 91.8184 195.111 93.2185 193.789C93.8717 193.155 94.7087 192.743 95.6099 192.613C96.0137 192.606 96.4105 192.718 96.7501 192.937C97.0897 193.155 97.3569 193.47 97.5179 193.84C97.9233 194.631 98.1594 195.497 98.2111 196.384C98.2861 197.268 98.2109 198.158 97.9885 199.017C97.895 199.386 97.7309 199.734 97.5052 200.041C97.4347 200.132 97.343 200.204 97.238 200.251C97.1786 200.273 97.113 200.273 97.0536 200.251C96.9646 200.251 96.8628 200.181 96.8501 200.149C96.8236 200.104 96.8043 200.054 96.7928 200.003C96.7491 199.705 96.7708 199.401 96.8564 199.113C97.3519 197.533 98.3702 196.169 99.7439 195.246C100.3 194.843 100.966 194.621 101.652 194.61C101.798 194.617 101.942 194.639 102.084 194.673C102.2 194.704 102.311 194.749 102.415 194.807C102.613 194.923 102.78 195.087 102.898 195.284C103.236 195.897 103.434 196.576 103.477 197.274C103.552 198.121 103.552 198.972 103.477 199.818C103.402 200.719 103.281 201.615 103.115 202.502C102.949 203.386 102.739 204.321 102.479 205.129L106.517 206.166Z" fill="#9D76C1"/>
<path opacity="0.1" d="M106.517 206.166C106.727 205.085 106.854 204.118 106.962 203.088C107.071 202.057 107.121 201.033 107.115 199.984C107.12 198.905 107.027 197.828 106.835 196.766C106.634 195.535 106.142 194.37 105.398 193.369C104.935 192.803 104.341 192.358 103.668 192.072C103.332 191.931 102.979 191.832 102.619 191.779C102.282 191.73 101.941 191.715 101.601 191.735C100.343 191.831 99.1461 192.313 98.173 193.115C97.2981 193.815 96.5551 194.666 95.9788 195.627C95.379 196.573 94.9707 197.628 94.7767 198.731C94.6488 199.39 94.7016 200.071 94.9294 200.703C95.0864 201.11 95.3636 201.461 95.7244 201.707C96.0674 201.935 96.4647 202.066 96.8755 202.089C97.2981 202.11 97.7179 202.009 98.0839 201.796C98.3982 201.598 98.6653 201.333 98.8662 201.021C99.1847 200.519 99.4008 199.959 99.5022 199.373C99.6837 198.334 99.6837 197.271 99.5022 196.231C99.3425 195.19 98.9631 194.195 98.3892 193.312C98.0826 192.844 97.6683 192.456 97.1808 192.18C96.6763 191.905 96.0935 191.808 95.5272 191.907C94.5129 192.134 93.5948 192.672 92.9005 193.446C91.5829 194.897 90.5322 196.57 89.7968 198.387C90.6604 196.667 91.8184 195.111 93.2185 193.789C93.8717 193.155 94.7087 192.743 95.6099 192.613C96.0137 192.606 96.4105 192.718 96.7501 192.937C97.0897 193.155 97.3569 193.47 97.5179 193.84C97.9233 194.631 98.1594 195.497 98.2111 196.384C98.2861 197.268 98.2109 198.158 97.9885 199.017C97.895 199.386 97.7309 199.734 97.5052 200.041C97.4347 200.132 97.343 200.204 97.238 200.251C97.1786 200.273 97.113 200.273 97.0536 200.251C96.9646 200.251 96.8628 200.181 96.8501 200.149C96.8236 200.104 96.8043 200.054 96.7928 200.003C96.7491 199.705 96.7708 199.401 96.8564 199.113C97.3519 197.533 98.3702 196.169 99.7439 195.246C100.3 194.843 100.966 194.621 101.652 194.61C101.798 194.617 101.942 194.639 102.084 194.673C102.2 194.704 102.311 194.749 102.415 194.807C102.613 194.923 102.78 195.087 102.898 195.284C103.236 195.897 103.434 196.576 103.477 197.274C103.552 198.121 103.552 198.972 103.477 199.818C103.402 200.719 103.281 201.615 103.115 202.502C102.949 203.386 102.739 204.321 102.479 205.129L106.517 206.166Z" fill="black"/>
<path d="M109.742 253.421C112.547 257.383 111.974 269.486 113.672 271.184C115.37 272.882 132.752 272.698 133.948 271.699C135.144 270.701 134.584 266.427 135.856 265.727C136.397 265.447 109.742 253.421 109.742 253.421Z" fill="#9D76C1"/>
<path opacity="0.1" d="M109.742 253.421C112.547 257.383 111.974 269.486 113.672 271.184C115.37 272.882 132.752 272.698 133.948 271.699C135.144 270.701 134.584 266.427 135.856 265.727C136.397 265.447 109.742 253.421 109.742 253.421Z" fill="black"/>
<path d="M184.052 253.618C180.548 258.706 182.443 269.518 180.745 271.184C179.047 272.85 161.665 272.698 160.469 271.699C159.273 270.701 159.833 266.198 159.14 265.339C158.777 264.888 184.052 253.618 184.052 253.618Z" fill="#9D76C1"/>
<path opacity="0.1" d="M184.052 253.618C180.548 258.706 182.443 269.518 180.745 271.184C179.047 272.85 161.665 272.698 160.469 271.699C159.273 270.701 159.833 266.198 159.14 265.339C158.777 264.888 184.052 253.618 184.052 253.618Z" fill="black"/>
<path opacity="0.3" d="M135.881 265.727C135.678 265.879 135.507 266.069 135.378 266.288C135.249 266.506 135.165 266.748 135.131 266.999C127.1 266.068 119.249 263.966 111.828 260.76C111.421 257.809 110.842 254.998 109.742 253.44C109.742 253.427 136.397 265.454 135.881 265.727Z" fill="black"/>
<path opacity="0.3" d="M184.052 253.618C182.748 255.526 182.189 258.191 181.915 260.906C174.798 264.059 167.254 266.145 159.528 267.095C159.539 266.488 159.408 265.887 159.146 265.339C158.771 264.888 184.052 253.618 184.052 253.618Z" fill="black"/>
<path d="M145.733 180.268C110.753 180.268 97.3207 207.673 97.3207 223.713C97.3207 239.537 107.497 266.427 145.733 266.427C183.969 266.427 196.645 243.645 196.645 223.35C196.645 203.056 181.101 180.268 145.733 180.268Z" fill="#9D76C1"/>
<path opacity="0.1" d="M145.733 180.268C110.753 180.268 97.3207 207.673 97.3207 223.713C97.3207 239.537 107.497 266.427 145.733 266.427C183.969 266.427 196.645 243.645 196.645 223.35C196.645 203.056 181.101 180.268 145.733 180.268Z" fill="black"/>
<path d="M155.61 182.252C155.61 182.252 171.599 169.99 188.917 171.44C194.877 171.943 184.981 184.866 184.796 194.972L155.61 182.252Z" fill="#9D76C1"/>
<path opacity="0.1" d="M155.61 182.252C155.61 182.252 171.599 169.99 188.917 171.44C194.877 171.943 184.981 184.866 184.796 194.972L155.61 182.252Z" fill="black"/>
<path opacity="0.3" d="M178.118 190.024C178.016 190.66 183.537 193.026 184.109 192.663C184.682 192.301 185.254 184.351 189.757 175.879C190.418 174.633 179.187 183.168 178.118 190.024Z" fill="black"/>
<path opacity="0.3" d="M181.591 221.519C182.124 221.437 182.623 221.205 183.03 220.851C183.436 220.496 183.734 220.033 183.887 219.515C183.836 220.152 183.642 220.768 183.319 221.319C182.996 221.869 182.553 222.34 182.023 222.695C181.947 222.746 181.985 222.893 182.087 222.861C185.146 221.71 184.815 217.391 183.74 214.637C183.683 214.485 183.626 214.332 183.556 214.186C182.869 212.589 181.648 211.432 180.172 211.642C175.231 212.354 177.012 222.18 181.591 221.519Z" fill="black"/>
<path d="M193.344 207.527C194.107 209.823 201.052 207.959 202.801 209.435C205.555 211.724 204.792 240.084 202.273 242.367C200.862 243.639 192.988 242.297 190.775 243.855C188.561 245.413 193.344 207.527 193.344 207.527Z" fill="#9D76C1"/>
<path opacity="0.1" d="M193.344 207.527C194.107 209.823 201.052 207.959 202.801 209.435C205.555 211.724 204.792 240.084 202.273 242.367C200.862 243.639 192.988 242.297 190.775 243.855C188.561 245.413 193.344 207.527 193.344 207.527Z" fill="black"/>
<path opacity="0.3" d="M203.196 225.189C203.196 232.095 202.617 237.699 201.924 237.699C201.23 237.699 200.652 232.095 200.652 225.189C200.652 218.282 201.224 212.678 201.924 212.678C202.623 212.678 203.196 218.282 203.196 225.189Z" fill="black"/>
<path opacity="0.3" d="M132.161 189.356C132.275 189.318 144.079 185.483 155.057 188.485L156.151 184.485C143.927 181.139 131.347 185.248 130.844 185.419L132.154 189.356L131.518 187.391L132.161 189.356Z" fill="black"/>
<path d="M115.752 249.573C99.9856 231.453 109.634 210.414 110.073 209.505C110.342 208.892 110.364 208.199 110.135 207.57C109.905 206.941 109.441 206.425 108.84 206.13C108.239 205.835 107.547 205.784 106.909 205.988C106.271 206.191 105.737 206.633 105.417 207.222C103.287 211.995 102.027 217.11 101.696 222.327C100.94 233.851 104.749 244.434 113.78 251.64C116.509 253.815 117.8 251.907 115.752 249.573Z" fill="white"/>
<path d="M108.909 201.466C108.907 202.024 109.072 202.571 109.381 203.036C109.691 203.502 110.132 203.864 110.647 204.079C111.163 204.294 111.731 204.351 112.279 204.242C112.828 204.134 113.331 203.866 113.727 203.471C114.123 203.076 114.392 202.573 114.502 202.025C114.611 201.477 114.556 200.909 114.342 200.393C114.128 199.877 113.766 199.435 113.302 199.125C112.837 198.814 112.291 198.648 111.732 198.648C110.985 198.648 110.267 198.945 109.738 199.473C109.209 200.001 108.91 200.718 108.909 201.466Z" fill="white"/>
<path d="M248.988 268.125H229.049V272.532H248.988V268.125Z" fill="#FA9E15"/>
<g opacity="0.1">
<path d="M229.869 268.526C230.291 269.664 230.291 270.916 229.869 272.055C229.448 270.916 229.448 269.664 229.869 268.526Z" fill="black"/>
<path d="M231.351 268.526C231.773 269.664 231.773 270.916 231.351 272.055C230.93 270.916 230.93 269.664 231.351 268.526Z" fill="black"/>
<path d="M232.076 268.526C232.498 269.664 232.498 270.916 232.076 272.055C231.655 270.916 231.655 269.664 232.076 268.526Z" fill="black"/>
<path d="M236.064 268.526C236.48 269.665 236.48 270.915 236.064 272.055C235.643 270.916 235.643 269.664 236.064 268.526Z" fill="black"/>
<path d="M237.139 268.526C237.358 269.089 237.466 269.689 237.457 270.294C237.469 270.896 237.36 271.495 237.139 272.055C236.915 271.496 236.807 270.896 236.821 270.294C236.812 269.689 236.92 269.089 237.139 268.526Z" fill="black"/>
<path d="M241.591 268.526C242.012 269.664 242.012 270.916 241.591 272.055C241.17 270.916 241.17 269.664 241.591 268.526Z" fill="black"/>
<path d="M242.621 268.526C243.043 269.664 243.043 270.916 242.621 272.055C242.2 270.916 242.2 269.664 242.621 268.526Z" fill="black"/>
<path d="M244.51 268.526C244.931 269.664 244.931 270.916 244.51 272.055C244.095 270.915 244.095 269.665 244.51 268.526Z" fill="black"/>
<path d="M240.732 268.526C240.953 269.09 241.059 269.694 241.044 270.3C241.058 270.903 240.95 271.502 240.726 272.062C240.504 271.501 240.396 270.902 240.408 270.3C240.4 269.693 240.51 269.09 240.732 268.526Z" fill="black"/>
<path d="M233.412 268.526C233.833 269.664 233.833 270.916 233.412 272.055C232.991 270.916 232.991 269.664 233.412 268.526Z" fill="black"/>
<path d="M238.557 268.526C238.978 269.664 238.978 270.916 238.557 272.055C238.333 271.496 238.225 270.896 238.239 270.294C238.227 269.689 238.335 269.088 238.557 268.526Z" fill="black"/>
<path d="M239.301 268.526C239.723 269.664 239.723 270.916 239.301 272.055C238.88 270.916 238.88 269.664 239.301 268.526Z" fill="black"/>
<path d="M246.978 268.526C247.197 269.089 247.305 269.689 247.296 270.294C247.308 270.896 247.199 271.495 246.978 272.055C246.754 271.496 246.646 270.896 246.66 270.294C246.648 269.689 246.756 269.088 246.978 268.526Z" fill="black"/>
<path d="M248.091 268.526C248.31 269.089 248.418 269.689 248.409 270.294C248.423 270.896 248.315 271.496 248.091 272.055C247.869 271.495 247.761 270.896 247.773 270.294C247.764 269.689 247.872 269.089 248.091 268.526Z" fill="black"/>
<path d="M245.388 268.526C245.809 269.664 245.809 270.916 245.388 272.055C244.967 270.916 244.967 269.664 245.388 268.526Z" fill="black"/>
<path d="M235.199 268.526C235.421 269.088 235.529 269.689 235.517 270.294C235.532 270.896 235.423 271.496 235.199 272.055C234.778 270.916 234.778 269.664 235.199 268.526Z" fill="black"/>
</g>
<path opacity="0.1" d="M248.988 268.125V269.06L229.043 269.689V268.125H248.988Z" fill="black"/>
<path d="M247.321 263.717H227.383V268.125H247.321V263.717Z" fill="#FA9E15"/>
<g opacity="0.1">
<path d="M246.425 267.648C246 266.512 246 265.261 246.425 264.124C246.849 265.261 246.849 266.512 246.425 267.648Z" fill="black"/>
<path d="M244.943 267.648C244.721 267.088 244.613 266.489 244.625 265.886C244.609 265.283 244.717 264.684 244.943 264.124C245.165 264.685 245.273 265.284 245.261 265.886C245.27 266.488 245.162 267.087 244.943 267.648Z" fill="black"/>
<path d="M244.224 267.648C243.8 266.512 243.8 265.261 244.224 264.124C244.648 265.261 244.648 266.512 244.224 267.648Z" fill="black"/>
<path d="M240.236 267.648C239.812 266.512 239.812 265.261 240.236 264.124C240.66 265.261 240.66 266.512 240.236 267.648Z" fill="black"/>
<path d="M239.136 267.648C238.917 267.087 238.809 266.488 238.818 265.886C238.805 265.284 238.914 264.685 239.136 264.124C239.362 264.684 239.47 265.283 239.454 265.886C239.466 266.489 239.358 267.088 239.136 267.648Z" fill="black"/>
<path d="M234.684 267.648C234.26 266.512 234.26 265.261 234.684 264.124C235.108 265.261 235.108 266.512 234.684 267.648Z" fill="black"/>
<path d="M233.673 267.648C233.451 267.088 233.343 266.489 233.355 265.886C233.339 265.283 233.447 264.684 233.673 264.124C234.097 265.261 234.097 266.512 233.673 267.648Z" fill="black"/>
<path d="M231.784 267.648C231.36 266.512 231.36 265.261 231.784 264.124C232.208 265.261 232.208 266.512 231.784 267.648Z" fill="black"/>
<path d="M235.562 267.648C235.343 267.087 235.235 266.488 235.244 265.886C235.228 265.283 235.336 264.684 235.562 264.124C235.784 264.685 235.892 265.284 235.88 265.886C235.889 266.488 235.781 267.087 235.562 267.648Z" fill="black"/>
<path d="M242.901 267.648C242.679 267.088 242.571 266.489 242.583 265.886C242.567 265.283 242.676 264.684 242.901 264.124C243.325 265.261 243.325 266.512 242.901 267.648Z" fill="black"/>
<path d="M237.737 267.648C237.313 266.512 237.313 265.261 237.737 264.124C238.161 265.261 238.161 266.512 237.737 267.648Z" fill="black"/>
<path d="M236.999 267.648C236.575 266.512 236.575 265.261 236.999 264.124C237.415 265.262 237.415 266.51 236.999 267.648Z" fill="black"/>
<path d="M229.316 267.648C228.892 266.512 228.892 265.261 229.316 264.124C229.542 264.684 229.65 265.283 229.634 265.886C229.646 266.489 229.538 267.088 229.316 267.648Z" fill="black"/>
<path d="M228.203 267.648C227.984 267.087 227.876 266.488 227.885 265.886C227.873 265.284 227.981 264.685 228.203 264.124C228.429 264.684 228.537 265.283 228.521 265.886C228.533 266.489 228.425 267.088 228.203 267.648Z" fill="black"/>
<path d="M230.906 267.648C230.482 266.512 230.482 265.261 230.906 264.124C231.33 265.261 231.33 266.512 230.906 267.648Z" fill="black"/>
<path d="M241.095 267.648C240.873 267.088 240.765 266.489 240.777 265.886C240.761 265.283 240.869 264.684 241.095 264.124C241.317 264.685 241.426 265.284 241.413 265.886C241.422 266.488 241.314 267.087 241.095 267.648Z" fill="black"/>
</g>
<path opacity="0.1" d="M247.321 263.717V264.652L227.383 265.282V263.717H247.321Z" fill="black"/>
<path d="M248.854 259.348H228.915V263.756H248.854V259.348Z" fill="#FA9E15"/>
<g opacity="0.1">
<path d="M229.742 259.749C230.164 260.888 230.164 262.14 229.742 263.279C229.321 262.14 229.321 260.888 229.742 259.749Z" fill="black"/>
<path d="M231.224 259.749C231.446 260.311 231.554 260.912 231.542 261.517C231.557 262.12 231.448 262.719 231.224 263.279C230.803 262.14 230.803 260.888 231.224 259.749Z" fill="black"/>
<path d="M231.949 259.749C232.37 260.888 232.37 262.14 231.949 263.279C231.528 262.14 231.528 260.888 231.949 259.749Z" fill="black"/>
<path d="M235.956 259.749C236.377 260.888 236.377 262.14 235.956 263.279C235.535 262.14 235.535 260.888 235.956 259.749Z" fill="black"/>
<path d="M237.012 259.749C237.231 260.312 237.339 260.912 237.33 261.517C237.341 262.119 237.233 262.718 237.012 263.279C236.788 262.719 236.679 262.12 236.694 261.517C236.682 260.912 236.79 260.311 237.012 259.749Z" fill="black"/>
<path d="M241.464 259.749C241.885 260.888 241.885 262.14 241.464 263.279C241.043 262.14 241.043 260.888 241.464 259.749Z" fill="black"/>
<path d="M242.494 259.749C242.915 260.888 242.915 262.14 242.494 263.279C242.073 262.14 242.073 260.888 242.494 259.749Z" fill="black"/>
<path d="M244.383 259.749C244.804 260.888 244.804 262.14 244.383 263.279C243.962 262.14 243.962 260.888 244.383 259.749Z" fill="black"/>
<path d="M240.605 259.749C240.824 260.312 240.932 260.912 240.923 261.517C240.938 262.12 240.829 262.719 240.605 263.279C240.384 262.718 240.276 262.119 240.287 261.517C240.278 260.912 240.386 260.312 240.605 259.749Z" fill="black"/>
<path d="M233.266 259.749C233.687 260.888 233.687 262.14 233.266 263.279C232.845 262.14 232.845 260.888 233.266 259.749Z" fill="black"/>
<path d="M238.43 259.749C238.851 260.888 238.851 262.14 238.43 263.279C238.009 262.14 238.009 260.888 238.43 259.749Z" fill="black"/>
<path d="M239.174 259.749C239.59 260.889 239.59 262.139 239.174 263.279C238.753 262.14 238.753 260.888 239.174 259.749Z" fill="black"/>
<path d="M246.851 259.749C247.272 260.888 247.272 262.14 246.851 263.279C246.627 262.719 246.518 262.12 246.533 261.517C246.521 260.912 246.629 260.311 246.851 259.749Z" fill="black"/>
<path d="M247.964 259.749C248.183 260.312 248.291 260.912 248.282 261.517C248.293 262.119 248.185 262.718 247.964 263.279C247.74 262.719 247.631 262.12 247.646 261.517C247.637 260.912 247.745 260.312 247.964 259.749Z" fill="black"/>
<path d="M245.261 259.749C245.682 260.888 245.682 262.14 245.261 263.279C244.839 262.14 244.839 260.888 245.261 259.749Z" fill="black"/>
<path d="M235.072 259.749C235.294 260.311 235.402 260.912 235.39 261.517C235.404 262.12 235.296 262.719 235.072 263.279C234.85 262.718 234.742 262.119 234.754 261.517C234.745 260.912 234.853 260.312 235.072 259.749Z" fill="black"/>
</g>
<path opacity="0.1" d="M248.86 259.348V260.283L228.915 260.913V259.348H248.86Z" fill="black"/>
<path d="M103.159 265.473H83.2206V269.88H103.159V265.473Z" fill="#FA9E15"/>
<g opacity="0.1">
<path d="M84.0411 265.848C84.4623 266.987 84.4623 268.239 84.0411 269.378C83.6199 268.239 83.6199 266.987 84.0411 265.848Z" fill="black"/>
<path d="M85.5293 265.848C85.7478 266.409 85.8558 267.007 85.8473 267.61C85.8594 268.214 85.7513 268.815 85.5293 269.378C85.3042 268.816 85.196 268.215 85.2113 267.61C85.1997 267.007 85.3078 266.408 85.5293 265.848Z" fill="black"/>
<path d="M86.2543 265.848C86.4728 266.409 86.5808 267.007 86.5723 267.61C86.5876 268.215 86.4794 268.816 86.2543 269.378C86.0323 268.815 85.9242 268.214 85.9363 267.61C85.9279 267.007 86.0358 266.409 86.2543 265.848Z" fill="black"/>
<path d="M90.2357 265.848C90.6569 266.987 90.6569 268.239 90.2357 269.378C89.8145 268.239 89.8145 266.987 90.2357 265.848Z" fill="black"/>
<path d="M91.3169 265.848C91.7381 266.987 91.7381 268.239 91.3169 269.378C90.8957 268.239 90.8957 266.987 91.3169 265.848Z" fill="black"/>
<path d="M95.7689 265.848C95.9904 266.408 96.0985 267.007 96.0869 267.61C96.1022 268.215 95.994 268.816 95.7689 269.378C95.3477 268.239 95.3477 266.987 95.7689 265.848Z" fill="black"/>
<path d="M96.7992 265.848C97.0177 266.409 97.1257 267.007 97.1172 267.61C97.1325 268.215 97.0243 268.816 96.7992 269.378C96.5772 268.815 96.4691 268.214 96.4812 267.61C96.4727 267.007 96.5807 266.409 96.7992 265.848Z" fill="black"/>
<path d="M98.6882 265.848C98.9097 266.408 99.0178 267.007 99.0062 267.61C99.0214 268.215 98.9132 268.816 98.6882 269.378C98.267 268.239 98.267 266.987 98.6882 265.848Z" fill="black"/>
<path d="M94.9103 265.848C95.3315 266.987 95.3315 268.239 94.9103 269.378C94.6853 268.816 94.5771 268.215 94.5923 267.61C94.5807 267.007 94.6888 266.408 94.9103 265.848Z" fill="black"/>
<path d="M87.5708 265.848C87.7894 266.409 87.8973 267.007 87.8888 267.61C87.901 268.214 87.7929 268.815 87.5708 269.378C87.3458 268.816 87.2376 268.215 87.2528 267.61C87.2444 267.007 87.3523 266.409 87.5708 265.848Z" fill="black"/>
<path d="M92.7352 265.848C93.1564 266.987 93.1564 268.239 92.7352 269.378C92.314 268.239 92.314 266.987 92.7352 265.848Z" fill="black"/>
<path d="M93.492 265.848C93.9132 266.987 93.9132 268.239 93.492 269.378C93.0708 268.239 93.0708 266.987 93.492 265.848Z" fill="black"/>
<path d="M101.156 265.848C101.577 266.987 101.577 268.239 101.156 269.378C100.735 268.239 100.735 266.987 101.156 265.848Z" fill="black"/>
<path d="M102.269 265.848C102.69 266.987 102.69 268.239 102.269 269.378C101.848 268.239 101.848 266.987 102.269 265.848Z" fill="black"/>
<path d="M99.5658 265.848C99.7873 266.408 99.8954 267.007 99.8838 267.61C99.8991 268.215 99.7909 268.816 99.5658 269.378C99.1446 268.239 99.1446 266.987 99.5658 265.848Z" fill="black"/>
<path d="M89.3771 265.848C89.5956 266.409 89.7036 267.007 89.6951 267.61C89.7072 268.214 89.5991 268.815 89.3771 269.378C89.152 268.816 89.0438 268.215 89.0591 267.61C89.0475 267.007 89.1556 266.408 89.3771 265.848Z" fill="black"/>
</g>
<path opacity="0.1" d="M103.166 265.473V266.408L83.2206 267.037V265.473H103.166Z" fill="black"/>
<path d="M101.798 261.065H81.8596V265.473H101.798V261.065Z" fill="#FA9E15"/>
<g opacity="0.1">
<path d="M82.68 261.466C82.899 262.029 83.007 262.63 82.998 263.234C83.0124 263.837 82.9042 264.436 82.68 264.996C82.4558 264.436 82.3476 263.837 82.362 263.234C82.353 262.63 82.461 262.029 82.68 261.466Z" fill="black"/>
<path d="M84.1619 261.466C84.5831 262.605 84.5831 263.857 84.1619 264.996C83.7462 263.856 83.7462 262.606 84.1619 261.466Z" fill="black"/>
<path d="M84.8933 261.466C85.3145 262.605 85.3145 263.857 84.8933 264.996C84.4721 263.857 84.4721 262.605 84.8933 261.466Z" fill="black"/>
<path d="M88.8747 261.466C89.2959 262.605 89.2959 263.857 88.8747 264.996C88.6505 264.436 88.5423 263.837 88.5567 263.234C88.5445 262.629 88.6526 262.028 88.8747 261.466Z" fill="black"/>
<path d="M89.9495 261.466C90.3707 262.605 90.3707 263.857 89.9495 264.996C89.5283 263.857 89.5283 262.605 89.9495 261.466Z" fill="black"/>
<path d="M94.4079 261.466C94.8291 262.605 94.8291 263.857 94.4079 264.996C93.9866 263.857 93.9866 262.605 94.4079 261.466Z" fill="black"/>
<path d="M95.4382 261.466C95.8594 262.605 95.8594 263.857 95.4382 264.996C95.017 263.857 95.017 262.605 95.4382 261.466Z" fill="black"/>
<path d="M97.308 261.466C97.7292 262.605 97.7292 263.857 97.308 264.996C96.8868 263.857 96.8868 262.605 97.308 261.466Z" fill="black"/>
<path d="M93.5429 261.466C93.9641 262.605 93.9641 263.857 93.5429 264.996C93.1217 263.857 93.1217 262.605 93.5429 261.466Z" fill="black"/>
<path d="M86.2098 261.466C86.631 262.605 86.631 263.857 86.2098 264.996C85.7886 263.857 85.7886 262.605 86.2098 261.466Z" fill="black"/>
<path d="M91.3678 261.466C91.5898 262.028 91.6979 262.629 91.6858 263.234C91.7001 263.837 91.592 264.436 91.3678 264.996C91.1462 264.435 91.0382 263.837 91.0498 263.234C91.0408 262.63 91.1488 262.029 91.3678 261.466Z" fill="black"/>
<path d="M92.1119 261.466C92.5331 262.605 92.5331 263.857 92.1119 264.996C91.8877 264.436 91.7795 263.837 91.7939 263.234C91.7818 262.629 91.8899 262.028 92.1119 261.466Z" fill="black"/>
<path d="M99.7884 261.466C100.01 262.028 100.119 262.629 100.106 263.234C100.121 263.837 100.013 264.436 99.7884 264.996C99.3672 263.857 99.3672 262.605 99.7884 261.466Z" fill="black"/>
<path d="M100.901 261.466C101.323 262.605 101.323 263.857 100.901 264.996C100.48 263.857 100.48 262.605 100.901 261.466Z" fill="black"/>
<path d="M98.2048 261.466C98.626 262.605 98.626 263.857 98.2048 264.996C97.7836 263.857 97.7836 262.605 98.2048 261.466Z" fill="black"/>
<path d="M88.0097 261.466C88.4309 262.605 88.4309 263.857 88.0097 264.996C87.5885 263.857 87.5885 262.605 88.0097 261.466Z" fill="black"/>
</g>
<path opacity="0.1" d="M101.798 261.065V262L81.8596 262.63V261.065H101.798Z" fill="black"/>
<path d="M104.876 252.288H84.9378V256.696H104.876V252.288Z" fill="#FA9E15"/>
<g opacity="0.1">
<path d="M85.7583 252.689C86.1795 253.828 86.1795 255.08 85.7583 256.219C85.337 255.08 85.337 253.828 85.7583 252.689Z" fill="black"/>
<path d="M87.2465 252.689C87.4655 253.253 87.5735 253.853 87.5645 254.457C87.5761 255.06 87.468 255.659 87.2465 256.219C87.0223 255.659 86.9141 255.06 86.9285 254.457C86.9164 253.853 87.0245 253.252 87.2465 252.689Z" fill="black"/>
<path d="M87.9715 252.689C88.1906 253.253 88.2985 253.853 88.2895 254.457C88.3012 255.06 88.1931 255.659 87.9715 256.219C87.7474 255.659 87.6392 255.06 87.6535 254.457C87.6446 253.853 87.7525 253.253 87.9715 252.689Z" fill="black"/>
<path d="M91.9529 252.689C92.1749 253.252 92.283 253.853 92.2709 254.457C92.2853 255.06 92.1771 255.659 91.9529 256.219C91.5317 255.08 91.5317 253.828 91.9529 252.689Z" fill="black"/>
<path d="M93.0341 252.689C93.4553 253.828 93.4553 255.08 93.0341 256.219C92.6129 255.08 92.6129 253.828 93.0341 252.689Z" fill="black"/>
<path d="M97.4861 252.689C97.7081 253.252 97.8162 253.853 97.8041 254.457C97.8185 255.06 97.7103 255.659 97.4861 256.219C97.2646 255.659 97.1565 255.06 97.1681 254.457C97.1591 253.853 97.2671 253.253 97.4861 252.689Z" fill="black"/>
<path d="M98.5164 252.689C98.7354 253.253 98.8434 253.853 98.8344 254.457C98.846 255.06 98.7379 255.659 98.5164 256.219C98.2922 255.659 98.184 255.06 98.1984 254.457C98.1894 253.853 98.2974 253.253 98.5164 252.689Z" fill="black"/>
<path d="M100.405 252.689C100.627 253.252 100.735 253.853 100.723 254.457C100.738 255.06 100.63 255.659 100.405 256.219C99.9841 255.08 99.9841 253.828 100.405 252.689Z" fill="black"/>
<path d="M96.6275 252.689C97.0487 253.828 97.0487 255.08 96.6275 256.219C96.2063 255.08 96.2063 253.828 96.6275 252.689Z" fill="black"/>
<path d="M89.2881 252.689C89.5071 253.253 89.6151 253.853 89.6061 254.457C89.6177 255.06 89.5096 255.659 89.2881 256.219C89.0639 255.659 88.9557 255.06 88.9701 254.457C88.9611 253.853 89.0691 253.253 89.2881 252.689Z" fill="black"/>
<path d="M94.446 252.689C94.8672 253.828 94.8672 255.08 94.446 256.219C94.0304 255.079 94.0304 253.829 94.446 252.689Z" fill="black"/>
<path d="M95.1901 252.689C95.6114 253.828 95.6114 255.08 95.1901 256.219C94.7689 255.08 94.7689 253.828 95.1901 252.689Z" fill="black"/>
<path d="M102.873 252.689C103.294 253.828 103.294 255.08 102.873 256.219C102.452 255.08 102.452 253.828 102.873 252.689Z" fill="black"/>
<path d="M103.986 252.689C104.407 253.828 104.407 255.08 103.986 256.219C103.565 255.08 103.565 253.828 103.986 252.689Z" fill="black"/>
<path d="M101.283 252.689C101.505 253.252 101.613 253.853 101.601 254.457C101.615 255.06 101.507 255.659 101.283 256.219C101.061 255.659 100.953 255.06 100.965 254.457C100.956 253.853 101.064 253.253 101.283 252.689Z" fill="black"/>
<path d="M91.0943 252.689C91.3133 253.253 91.4213 253.853 91.4123 254.457C91.4239 255.06 91.3158 255.659 91.0943 256.219C90.8701 255.659 90.7619 255.06 90.7763 254.457C90.7642 253.853 90.8723 253.252 91.0943 252.689Z" fill="black"/>
</g>
<path opacity="0.1" d="M104.876 252.288V253.223L84.9378 253.853V252.288H104.876Z" fill="black"/>
<path d="M104.374 247.881H84.4354V252.288H104.374V247.881Z" fill="#FA9E15"/>
<g opacity="0.1">
<path d="M103.484 251.811C103.059 250.675 103.059 249.424 103.484 248.288C103.899 249.426 103.899 250.674 103.484 251.811Z" fill="black"/>
<path d="M101.995 251.811C101.776 251.25 101.668 250.652 101.677 250.05C101.665 249.447 101.773 248.848 101.995 248.288C102.221 248.847 102.329 249.447 102.313 250.05C102.322 250.652 102.214 251.25 101.995 251.811Z" fill="black"/>
<path d="M101.27 251.811C101.048 251.251 100.94 250.652 100.952 250.05C100.936 249.447 101.045 248.847 101.27 248.288C101.493 248.848 101.601 249.447 101.588 250.05C101.597 250.652 101.489 251.25 101.27 251.811Z" fill="black"/>
<path d="M97.308 251.811C96.8838 250.675 96.8838 249.424 97.308 248.288C97.7322 249.424 97.7322 250.675 97.308 251.811Z" fill="black"/>
<path d="M96.2077 251.811C95.7836 250.675 95.7836 249.424 96.2077 248.288C96.6319 249.424 96.6319 250.675 96.2077 251.811Z" fill="black"/>
<path d="M91.7557 251.811C91.5337 251.251 91.4256 250.652 91.4377 250.05C91.4219 249.447 91.5302 248.847 91.7557 248.288C92.1799 249.424 92.1799 250.675 91.7557 251.811Z" fill="black"/>
<path d="M90.7254 251.811C90.5034 251.251 90.3953 250.652 90.4074 250.05C90.3916 249.447 90.4998 248.847 90.7254 248.288C90.9479 248.848 91.056 249.447 91.0434 250.05C91.0524 250.652 90.9444 251.25 90.7254 251.811Z" fill="black"/>
<path d="M88.8365 251.811C88.4123 250.675 88.4123 249.424 88.8365 248.288C89.2607 249.424 89.2607 250.675 88.8365 251.811Z" fill="black"/>
<path d="M92.6143 251.811C92.3954 251.25 92.2874 250.652 92.2963 250.05C92.2837 249.447 92.3918 248.848 92.6143 248.288C92.8399 248.847 92.9482 249.447 92.9323 250.05C92.9445 250.652 92.8364 251.251 92.6143 251.811Z" fill="black"/>
<path d="M99.9538 251.811C99.7348 251.25 99.6268 250.652 99.6358 250.05C99.6199 249.447 99.7282 248.847 99.9538 248.288C100.176 248.848 100.284 249.447 100.272 250.05C100.281 250.652 100.173 251.25 99.9538 251.811Z" fill="black"/>
<path d="M94.764 251.811C94.3399 250.675 94.3399 249.424 94.764 248.288C95.1882 249.424 95.1882 250.675 94.764 251.811Z" fill="black"/>
<path d="M94.0517 251.811C93.6275 250.675 93.6275 249.424 94.0517 248.288C94.4758 249.424 94.4758 250.675 94.0517 251.811Z" fill="black"/>
<path d="M86.3688 251.811C85.9446 250.675 85.9446 249.424 86.3688 248.288C86.793 249.424 86.793 250.675 86.3688 251.811Z" fill="black"/>
<path d="M85.2558 251.811C84.8316 250.675 84.8316 249.424 85.2558 248.288C85.68 249.424 85.68 250.675 85.2558 251.811Z" fill="black"/>
<path d="M87.9588 251.811C87.5346 250.675 87.5346 249.424 87.9588 248.288C88.383 249.424 88.383 250.675 87.9588 251.811Z" fill="black"/>
<path d="M98.1475 251.811C97.9286 251.25 97.8206 250.652 97.8295 250.05C97.8169 249.447 97.925 248.848 98.1475 248.288C98.3731 248.847 98.4814 249.447 98.4655 250.05C98.4745 250.652 98.3665 251.25 98.1475 251.811Z" fill="black"/>
</g>
<path opacity="0.1" d="M104.374 247.881V248.816L84.4354 249.446V247.881H104.374Z" fill="black"/>
<path d="M103.159 243.474H83.2206V247.881H103.159V243.474Z" fill="#FA9E15"/>
<g opacity="0.1">
<path d="M84.041 243.881C84.4652 245.017 84.4652 246.268 84.041 247.404C83.6253 246.266 83.6253 245.018 84.041 243.881Z" fill="black"/>
<path d="M85.5293 243.881C85.7483 244.442 85.8563 245.04 85.8473 245.642C85.8594 246.245 85.7513 246.844 85.5293 247.404C85.3051 246.844 85.1969 246.245 85.2113 245.642C85.2023 245.04 85.3103 244.442 85.5293 243.881Z" fill="black"/>
<path d="M86.2543 243.881C86.4764 244.441 86.5845 245.04 86.5723 245.642C86.5867 246.245 86.4785 246.844 86.2543 247.404C86.0323 246.844 85.9242 246.245 85.9363 245.642C85.9274 245.04 86.0354 244.442 86.2543 243.881Z" fill="black"/>
<path d="M90.2357 243.881C90.6599 245.017 90.6599 246.268 90.2357 247.404C89.8115 246.268 89.8115 245.017 90.2357 243.881Z" fill="black"/>
<path d="M91.3169 243.881C91.741 245.017 91.741 246.268 91.3169 247.404C90.8927 246.268 90.8927 245.017 91.3169 243.881Z" fill="black"/>
<path d="M95.7689 243.881C96.1931 245.017 96.1931 246.268 95.7689 247.404C95.3447 246.268 95.3447 245.017 95.7689 243.881Z" fill="black"/>
<path d="M96.7992 243.881C97.0212 244.441 97.1293 245.04 97.1172 245.642C97.1316 246.245 97.0234 246.844 96.7992 247.404C96.5772 246.844 96.4691 246.245 96.4812 245.642C96.4722 245.04 96.5802 244.442 96.7992 243.881Z" fill="black"/>
<path d="M98.6881 243.881C99.1123 245.017 99.1123 246.268 98.6881 247.404C98.264 246.268 98.264 245.017 98.6881 243.881Z" fill="black"/>
<path d="M94.9103 243.881C95.1293 244.442 95.2373 245.04 95.2283 245.642C95.2404 246.245 95.1323 246.844 94.9103 247.404C94.6861 246.844 94.5779 246.245 94.5923 245.642C94.5802 245.04 94.6883 244.441 94.9103 243.881Z" fill="black"/>
<path d="M87.5708 243.881C87.7898 244.442 87.8978 245.04 87.8888 245.642C87.9032 246.245 87.795 246.844 87.5708 247.404C87.3488 246.844 87.2407 246.245 87.2528 245.642C87.2439 245.04 87.3519 244.442 87.5708 243.881Z" fill="black"/>
<path d="M92.7352 243.881C93.1593 245.017 93.1593 246.268 92.7352 247.404C92.311 246.268 92.311 245.017 92.7352 243.881Z" fill="black"/>
<path d="M93.492 243.881C93.9162 245.017 93.9162 246.268 93.492 247.404C93.0678 246.268 93.0678 245.017 93.492 243.881Z" fill="black"/>
<path d="M101.156 243.881C101.58 245.017 101.58 246.268 101.156 247.404C100.732 246.268 100.732 245.017 101.156 243.881Z" fill="black"/>
<path d="M102.269 243.881C102.693 245.017 102.693 246.268 102.269 247.404C101.845 246.268 101.845 245.017 102.269 243.881Z" fill="black"/>
<path d="M99.5658 243.881C99.99 245.017 99.99 246.268 99.5658 247.404C99.1416 246.268 99.1416 245.017 99.5658 243.881Z" fill="black"/>
<path d="M89.3771 243.881C89.5961 244.442 89.7041 245.04 89.6951 245.642C89.7072 246.245 89.5991 246.844 89.3771 247.404C89.1529 246.844 89.0447 246.245 89.0591 245.642C89.0501 245.04 89.1581 244.442 89.3771 243.881Z" fill="black"/>
</g>
<path opacity="0.1" d="M103.166 243.474V244.415L83.2206 245.044V243.474H103.166Z" fill="black"/>
<path d="M103.159 256.696H83.2206V261.103H103.159V256.696Z" fill="#FA9E15"/>
<g opacity="0.1">
<path d="M102.269 260.626C101.848 259.488 101.848 258.236 102.269 257.097C102.69 258.236 102.69 259.488 102.269 260.626Z" fill="black"/>
<path d="M100.781 260.626C100.359 259.488 100.359 258.236 100.781 257.097C101.202 258.236 101.202 259.488 100.781 260.626Z" fill="black"/>
<path d="M100.056 260.626C99.6344 259.488 99.6344 258.236 100.056 257.097C100.28 257.656 100.388 258.256 100.374 258.858C100.386 259.463 100.278 260.064 100.056 260.626Z" fill="black"/>
<path d="M96.0742 260.626C95.8552 260.063 95.7472 259.463 95.7562 258.858C95.7418 258.256 95.85 257.656 96.0742 257.097C96.2957 257.657 96.4038 258.256 96.3922 258.858C96.4012 259.463 96.2932 260.063 96.0742 260.626Z" fill="black"/>
<path d="M94.9993 260.626C94.5781 259.488 94.5781 258.236 94.9993 257.097C95.415 258.237 95.415 259.487 94.9993 260.626Z" fill="black"/>
<path d="M90.541 260.626C90.322 260.063 90.214 259.463 90.223 258.858C90.2114 258.256 90.3195 257.657 90.541 257.097C90.7652 257.656 90.8734 258.256 90.859 258.858C90.868 259.463 90.76 260.063 90.541 260.626Z" fill="black"/>
<path d="M89.5107 260.626C89.0895 259.488 89.0895 258.236 89.5107 257.097C89.7349 257.656 89.843 258.256 89.8287 258.858C89.8408 259.463 89.7327 260.064 89.5107 260.626Z" fill="black"/>
<path d="M87.6218 260.626C87.4028 260.063 87.2948 259.463 87.3038 258.858C87.2894 258.256 87.3976 257.656 87.6218 257.097C87.8433 257.657 87.9514 258.256 87.9398 258.858C87.9487 259.463 87.8408 260.063 87.6218 260.626Z" fill="black"/>
<path d="M91.3996 260.626C90.9784 259.488 90.9784 258.236 91.3996 257.097C91.8208 258.236 91.8208 259.488 91.3996 260.626Z" fill="black"/>
<path d="M98.739 260.626C98.3178 259.488 98.3178 258.236 98.739 257.097C98.9632 257.656 99.0714 258.256 99.057 258.858C99.0691 259.463 98.9611 260.064 98.739 260.626Z" fill="black"/>
<path d="M93.5811 260.626C93.1599 259.488 93.1599 258.236 93.5811 257.097C94.0023 258.236 94.0023 259.488 93.5811 260.626Z" fill="black"/>
<path d="M92.856 260.626C92.634 260.064 92.5259 259.463 92.538 258.858C92.5237 258.256 92.6318 257.656 92.856 257.097C93.0776 257.657 93.1857 258.256 93.174 258.858C93.183 259.463 93.075 260.063 92.856 260.626Z" fill="black"/>
<path d="M85.1604 260.626C84.7392 259.488 84.7392 258.236 85.1604 257.097C85.5816 258.236 85.5816 259.488 85.1604 260.626Z" fill="black"/>
<path d="M84.0411 260.626C83.6199 259.488 83.6199 258.236 84.0411 257.097C84.4623 258.236 84.4623 259.488 84.0411 260.626Z" fill="black"/>
<path d="M86.7441 260.626C86.5251 260.063 86.4171 259.463 86.4261 258.858C86.4117 258.256 86.5199 257.656 86.7441 257.097C86.9683 257.656 87.0764 258.256 87.0621 258.858C87.0711 259.463 86.9631 260.063 86.7441 260.626Z" fill="black"/>
<path d="M96.9328 260.626C96.5116 259.488 96.5116 258.236 96.9328 257.097C97.354 258.236 97.354 259.488 96.9328 260.626Z" fill="black"/>
</g>
<path opacity="0.1" d="M103.166 256.696V257.631L83.2206 258.261V256.696H103.166Z" fill="black"/>
<path d="M81.5607 254.502C94.6877 256.861 91.2151 276.304 78.069 273.944C64.9229 271.585 68.4082 252.142 81.5607 254.502Z" fill="#FA9E15"/>
<path opacity="0.1" d="M81.5607 254.502C94.6877 256.861 91.2151 276.304 78.069 273.944C64.9229 271.585 68.4082 252.142 81.5607 254.502Z" fill="black"/>
<path d="M80.3268 254.279C92.8369 256.524 89.3707 275.973 76.8352 273.722C64.2996 271.47 67.7976 252.034 80.3268 254.279Z" fill="#FA9E15"/>
<path opacity="0.1" d="M70.6469 264.462C70.7169 267.928 72.733 271.279 77.1341 272.094C87.5327 273.957 90.4138 257.815 80.0279 255.952L79.8244 255.92C89.5616 257.873 86.7695 273.143 76.8543 271.362C75.1734 271.125 73.6297 270.304 72.4945 269.042C71.3593 267.78 70.7051 266.158 70.6469 264.462Z" fill="black"/>
<g opacity="0.1">
<path d="M79.6654 257.949C79.7485 257.973 79.8193 258.028 79.8631 258.102C79.9069 258.177 79.9204 258.265 79.9007 258.35L79.7671 258.884C80.619 259.165 81.3661 259.697 81.9104 260.41C81.9571 260.456 81.9919 260.512 82.0118 260.574C82.0318 260.636 82.0363 260.702 82.0249 260.766C81.9983 260.855 81.9385 260.93 81.8581 260.977C81.7777 261.023 81.6826 261.036 81.5924 261.014C81.5474 261.004 81.505 260.985 81.4678 260.957C81.4306 260.93 81.3994 260.895 81.3762 260.855C80.9253 260.238 80.3043 259.765 79.5891 259.494L78.6605 263.228C80.5685 264.163 81.2427 265.136 80.9183 266.439C80.5621 267.858 79.1248 268.557 77.4457 268.195L77.185 269.238C77.1797 269.285 77.1645 269.33 77.1404 269.37C77.1162 269.411 77.0837 269.446 77.045 269.473C77.0063 269.5 76.9622 269.518 76.9159 269.526C76.8695 269.535 76.8218 269.533 76.7761 269.522C76.7304 269.51 76.6876 269.489 76.6507 269.46C76.6138 269.431 76.5835 269.394 76.562 269.352C76.5405 269.31 76.5282 269.264 76.526 269.217C76.5237 269.17 76.5316 269.123 76.549 269.079L76.8097 268.023C75.7133 267.663 74.7701 266.943 74.1322 265.982C74.094 265.939 74.0671 265.888 74.0537 265.832C74.0404 265.777 74.0411 265.719 74.0559 265.664C74.0798 265.577 74.1361 265.503 74.213 265.457C74.2899 265.411 74.3817 265.396 74.4693 265.416C74.5143 265.424 74.557 265.441 74.5944 265.468C74.6318 265.494 74.6629 265.528 74.6855 265.568C75.2177 266.434 76.0302 267.091 76.9878 267.432L77.9355 263.616C76.0275 262.674 75.3915 261.708 75.7349 260.404C76.0783 259.1 77.4966 258.318 79.1375 258.687L79.2647 258.178C79.2898 258.096 79.3453 258.027 79.4197 257.984C79.4941 257.941 79.582 257.929 79.6654 257.949ZM78.1072 262.948L79.0103 259.304C77.7383 259.011 76.6635 259.571 76.4281 260.531C76.1928 261.491 76.4854 262.102 78.1072 262.948ZM78.4888 263.908L77.592 267.591C78.9276 267.896 79.9897 267.336 80.2441 266.319C80.4985 265.301 80.136 264.729 78.4888 263.94V263.908Z" fill="black"/>
</g>
</svg>
