<svg width="206" height="206" viewBox="0 0 206 206" fill="none" xmlns="http://www.w3.org/2000/svg">
<path d="M103 196.746C150.516 196.746 189.035 174.507 189.035 147.073C189.035 119.64 150.516 97.4009 103 97.4009C55.4844 97.4009 16.9653 119.64 16.9653 147.073C16.9653 174.507 55.4844 196.746 103 196.746Z" fill="#F5F5F5"/>
<path d="M116.501 181.856C126.776 181.856 135.106 177.046 135.106 171.114C135.106 165.181 126.776 160.372 116.501 160.372C106.225 160.372 97.8957 165.181 97.8957 171.114C97.8957 177.046 106.225 181.856 116.501 181.856Z" fill="#E0E0E0"/>
<path d="M106.832 134.745L57.0669 163.482C55.667 164.29 53.2213 164.189 51.6046 163.255L33.9364 153.054C32.3197 152.121 32.1442 150.709 33.5442 149.9L83.3097 121.163C84.7097 120.355 87.1553 120.456 88.772 121.39L106.44 131.591C108.057 132.524 108.233 133.936 106.832 134.745Z" fill="#E0E0E0"/>
<path d="M160.418 144.779L164.339 147.056C164.339 147.056 162.361 140.742 163.459 134.39C163.873 131.992 164.745 130.801 165.053 130.162C165.361 129.522 167.724 125.56 165.644 123.733C163.563 121.907 158.681 125.54 158.9 135.323C159.012 140.343 160.418 144.779 160.418 144.779Z" fill="#9D76C1"/>
<path opacity="0.5" d="M160.418 144.779L164.339 147.056C164.339 147.056 162.361 140.742 163.459 134.39C163.873 131.992 164.745 130.801 165.053 130.162C165.361 129.522 167.724 125.56 165.644 123.733C163.563 121.907 158.681 125.54 158.9 135.323C159.012 140.343 160.418 144.779 160.418 144.779Z" fill="black"/>
<path d="M162.241 146.015C162.168 146.015 162.1 145.971 162.074 145.899C162.059 145.858 160.577 141.742 160.655 135.14C160.733 128.499 164.223 124.957 164.259 124.922C164.328 124.853 164.441 124.853 164.51 124.923C164.579 124.993 164.579 125.105 164.509 125.174C164.475 125.208 161.087 128.656 161.01 135.144C160.933 141.675 162.393 145.736 162.408 145.776C162.442 145.868 162.394 145.97 162.302 146.004C162.282 146.012 162.261 146.015 162.241 146.015Z" fill="white"/>
<path d="M163.459 146.558L169.934 150.366C169.934 150.366 172.9 149.93 172.675 147.138C172.45 144.347 171.246 143.69 172.746 142.463C174.246 141.236 174.633 141.155 174.562 139.953C174.49 138.751 173.681 138.227 173.3 137.751C172.92 137.274 171.859 136.275 172.606 134.825C173.352 133.375 174.363 131.975 172.862 131.31C171.966 130.913 170.458 131.41 169.459 132.471C168.46 133.532 167.635 134.294 166.689 134.541C165.742 134.787 163.769 134.806 163.835 136.438C163.901 138.069 164.325 138.632 163.929 139.356C163.184 140.72 160.001 141.455 163.459 146.558Z" fill="#9D76C1"/>
<path opacity="0.2" d="M163.459 146.558L169.934 150.366C169.934 150.366 172.9 149.93 172.675 147.138C172.45 144.347 171.246 143.69 172.746 142.463C174.246 141.236 174.633 141.155 174.562 139.953C174.49 138.751 173.681 138.227 173.3 137.751C172.92 137.274 171.859 136.275 172.606 134.825C173.352 133.375 174.363 131.975 172.862 131.31C171.966 130.913 170.458 131.41 169.459 132.471C168.46 133.532 167.635 134.294 166.689 134.541C165.742 134.787 163.769 134.806 163.835 136.438C163.901 138.069 164.325 138.632 163.929 139.356C163.184 140.72 160.001 141.455 163.459 146.558Z" fill="black"/>
<path d="M166.096 148.287C166.004 148.287 165.926 148.216 165.919 148.123C165.911 148.027 165.206 138.371 171.915 132.03C171.987 131.962 172.099 131.965 172.166 132.037C172.234 132.108 172.23 132.22 172.159 132.288C165.577 138.509 166.265 147.999 166.273 148.094C166.281 148.192 166.208 148.278 166.11 148.286C166.106 148.286 166.101 148.287 166.096 148.287Z" fill="white"/>
<path d="M167.257 140.012C167.164 140.012 167.087 139.94 167.08 139.847C166.892 137.314 165.129 136.01 165.111 135.997C165.032 135.94 165.014 135.829 165.071 135.749C165.128 135.67 165.239 135.651 165.319 135.709C165.397 135.765 167.234 137.116 167.435 139.82C167.442 139.918 167.368 140.003 167.271 140.011C167.266 140.011 167.261 140.012 167.257 140.012Z" fill="white"/>
<path d="M166.779 141.659C166.736 141.659 166.694 141.644 166.66 141.613C166.587 141.548 166.581 141.436 166.647 141.363C166.717 141.285 168.405 139.46 172.31 139.996C172.407 140.01 172.475 140.099 172.462 140.196C172.448 140.293 172.359 140.361 172.262 140.348C168.557 139.84 166.927 141.584 166.911 141.601C166.876 141.639 166.828 141.659 166.779 141.659Z" fill="white"/>
<path d="M41.6631 139.233L39.7271 143.331C39.7271 143.331 37.7734 137.01 33.2653 132.402C31.5638 130.663 30.17 130.177 29.5532 129.825C28.9364 129.473 24.7427 127.551 25.4196 124.867C26.0965 122.183 32.178 122.404 37.5481 130.585C40.3047 134.782 41.6631 139.233 41.6631 139.233Z" fill="#9D76C1"/>
<path opacity="0.5" d="M41.6631 139.233L39.7271 143.331C39.7271 143.331 37.7734 137.01 33.2653 132.402C31.5638 130.663 30.17 130.177 29.5532 129.825C28.9364 129.473 24.7427 127.551 25.4196 124.867C26.0965 122.183 32.178 122.404 37.5481 130.585C40.3047 134.782 41.6631 139.233 41.6631 139.233Z" fill="black"/>
<path d="M40.7629 141.316C40.6838 141.316 40.6113 141.263 40.5907 141.183C40.58 141.141 39.4783 136.969 35.7089 131.635C31.9646 126.336 27.2188 125.419 27.171 125.41C27.0746 125.393 27.0103 125.3 27.0276 125.203C27.0453 125.107 27.1364 125.043 27.2344 125.06C27.2831 125.069 32.1665 126.005 35.9989 131.429C39.8087 136.821 40.9236 141.051 40.9343 141.094C40.959 141.189 40.9013 141.286 40.8061 141.31C40.7925 141.314 40.7777 141.316 40.7629 141.316Z" fill="white"/>
<path d="M40.1692 142.422L36.9976 149.233C36.9976 149.233 34.3081 150.556 32.9089 148.13C31.5102 145.704 32.129 144.479 30.198 144.32C28.2669 144.162 27.9019 144.314 27.2789 143.284C26.656 142.253 27.0243 141.363 27.0676 140.754C27.1104 140.146 27.417 138.722 25.9799 137.951C24.5428 137.181 22.9154 136.601 23.7749 135.202C24.2878 134.367 25.811 133.921 27.2357 134.228C28.6604 134.534 29.7715 134.694 30.6907 134.36C31.6099 134.025 33.2463 132.922 34.1169 134.303C34.9875 135.684 34.9586 136.387 35.6953 136.759C37.0829 137.46 40.121 136.258 40.1692 142.422Z" fill="#9D76C1"/>
<path opacity="0.2" d="M40.1692 142.422L36.9976 149.233C36.9976 149.233 34.3081 150.556 32.9089 148.13C31.5102 145.704 32.129 144.479 30.198 144.32C28.2669 144.162 27.9019 144.314 27.2789 143.284C26.656 142.253 27.0243 141.363 27.0676 140.754C27.1104 140.146 27.417 138.722 25.9799 137.951C24.5428 137.181 22.9154 136.601 23.7749 135.202C24.2878 134.367 25.811 133.921 27.2357 134.228C28.6604 134.534 29.7715 134.694 30.6907 134.36C31.6099 134.025 33.2463 132.922 34.1169 134.303C34.9875 135.684 34.9586 136.387 35.6953 136.759C37.0829 137.46 40.121 136.258 40.1692 142.422Z" fill="black"/>
<path d="M38.8776 145.374C38.8162 145.374 38.7564 145.342 38.7235 145.285C38.6761 145.202 33.8582 136.997 24.9079 135.609C24.8111 135.594 24.7447 135.503 24.7596 135.406C24.7744 135.308 24.8654 135.241 24.9627 135.258C34.0852 136.672 38.9834 145.024 39.0316 145.108C39.0807 145.193 39.0514 145.302 38.9661 145.35C38.9385 145.366 38.908 145.374 38.8776 145.374Z" fill="white"/>
<path d="M33.2262 139.219C33.1656 139.219 33.1059 139.187 33.0729 139.13C31.7034 136.79 32.4487 134.635 32.4813 134.544C32.5138 134.452 32.6147 134.403 32.7083 134.437C32.801 134.47 32.8492 134.572 32.8162 134.664C32.8088 134.684 32.0969 136.758 33.3794 138.951C33.4293 139.036 33.4008 139.144 33.316 139.194C33.288 139.211 33.2571 139.219 33.2262 139.219Z" fill="white"/>
<path d="M29.2771 142.35C29.2289 142.35 29.1811 142.33 29.1461 142.292C29.0798 142.219 29.0851 142.107 29.1572 142.04C32.0672 139.384 34.4951 139.929 34.5965 139.953C34.6916 139.976 34.7506 140.072 34.7275 140.167C34.7052 140.262 34.6117 140.322 34.5137 140.299C34.4898 140.293 32.1582 139.782 29.3966 142.303C29.3628 142.334 29.3196 142.35 29.2771 142.35Z" fill="white"/>
<path d="M40.2145 56.2401C40.2145 53.7977 41.5176 51.5404 43.6329 50.3192L87.1067 25.2198C88.3909 24.4782 89.9487 25.174 90.3586 26.4805C90.1229 25.4632 89.4885 24.568 88.5701 24.0208L88.4152 23.9285C87.3333 23.2842 86.0977 22.9443 84.8386 22.9443V22.9451C84.4563 22.9397 84.0628 23.0337 83.692 23.2479L40.2182 48.347C38.103 49.5681 36.7998 51.8251 36.7998 54.2678V148.284C36.7998 150.007 38.6654 151.084 40.158 150.223L40.2145 150.19V56.2401Z" fill="#37474F"/>
<path d="M87.0461 127.095L43.5723 152.194C42.0796 153.056 40.2141 151.979 40.2141 150.256V56.2401C40.2141 53.7977 41.5172 51.5404 43.6324 50.3192L87.1063 25.2197C88.5985 24.3583 90.4641 25.4352 90.4641 27.1586V121.175C90.4645 123.617 89.1613 125.874 87.0461 127.095Z" fill="#455A64"/>
<path d="M40.2145 150.256V56.2401C40.2145 55.1977 40.4539 54.1895 40.8902 53.2811L37.5287 51.1992C37.0577 52.1361 36.7998 53.1834 36.7998 54.2678V148.088V148.284V149.069C36.7998 149.828 37.1995 150.531 37.8517 150.919L39.585 151.951C40.1852 152.309 40.8712 152.498 41.5704 152.498H42.4261V152.497C41.2684 152.481 40.2145 151.551 40.2145 150.256Z" fill="#263238"/>
<path d="M85.5497 34.2562V113.277C85.5497 115.434 84.399 117.427 82.531 118.506L44.1412 140.67C43.8335 140.848 43.5076 140.929 43.1891 140.934C43.6341 141.965 44.9228 142.477 45.994 141.859L84.3838 119.694C86.2518 118.616 87.4025 116.623 87.4025 114.466V36.228C87.4029 35.1218 86.5315 34.3213 85.5497 34.2562Z" fill="#37474F"/>
<path d="M43.1895 140.935C43.508 140.929 43.8339 140.848 44.1417 140.67L82.5314 118.506C84.3994 117.427 85.5501 115.435 85.5501 113.278V34.2562C85.7306 34.2681 84.9737 34.2063 84.4377 34.5161L46.048 56.6805C44.18 57.7591 43.0293 59.752 43.0293 61.9088V140.147C43.0293 140.436 43.0894 140.705 43.1949 140.945C43.1932 140.942 43.1912 140.938 43.1895 140.935Z" fill="#9D76C1"/>
<g opacity="0.5">
<path d="M43.1895 140.935C43.508 140.929 43.8339 140.848 44.1417 140.67L82.5314 118.506C84.3994 117.427 85.5501 115.435 85.5501 113.278V34.2562C85.7306 34.2681 84.9737 34.2063 84.4377 34.5161L46.048 56.6805C44.18 57.7591 43.0293 59.752 43.0293 61.9088V140.147C43.0293 140.436 43.0894 140.705 43.1949 140.945C43.1932 140.942 43.1912 140.938 43.1895 140.935Z" fill="white"/>
</g>
<path d="M59.2555 45.0987C59.2555 45.5396 58.9461 46.0756 58.5641 46.296C58.1822 46.5164 57.8728 46.3376 57.8728 45.8968C57.8728 45.456 58.1822 44.9199 58.5641 44.6995C58.9456 44.4791 59.2555 44.6579 59.2555 45.0987Z" fill="#263238"/>
<path d="M61.8272 43.6139C61.8272 44.0548 61.5178 44.5908 61.1359 44.8112C60.7539 45.0316 60.4445 44.8528 60.4445 44.412C60.4445 43.9711 60.7539 43.4351 61.1359 43.2147C61.5174 42.9943 61.8272 43.1731 61.8272 43.6139Z" fill="#263238"/>
<path d="M72.2075 38.419L63.846 43.2468C63.5151 43.4376 63.2473 43.2349 63.2473 42.794C63.2473 42.3532 63.5156 41.8411 63.846 41.6503L72.2075 36.8229C72.5384 36.6322 72.8062 36.8345 72.8062 37.2753C72.8062 37.7161 72.5379 38.2282 72.2075 38.419Z" fill="#263238"/>
<path d="M70.7927 130.061C71.2921 130.061 71.6151 130.591 71.6151 131.41C71.6151 132.699 70.8092 134.252 69.8554 134.803L65.8561 137.112C65.6427 137.235 65.4421 137.298 65.2604 137.298C64.761 137.298 64.438 136.768 64.438 135.948C64.438 134.66 65.2439 133.107 66.1977 132.556L70.197 130.247C70.4108 130.124 70.611 130.061 70.7927 130.061ZM70.7927 129.719C70.5579 129.719 70.2987 129.794 70.0264 129.951L66.0271 132.26C64.9609 132.875 64.0969 134.527 64.0969 135.948C64.0969 137.006 64.576 137.639 65.2608 137.639C65.4956 137.639 65.7548 137.564 66.0271 137.407L70.0264 135.098C71.0927 134.483 71.9566 132.832 71.9566 131.41C71.9566 130.352 71.4775 129.719 70.7927 129.719Z" fill="#263238"/>
<path d="M48.6922 67.4473V156.022C48.6922 157.626 49.2818 158.704 50.1828 159.058L50.2079 159.066L50.2121 159.07L54.04 161.167L54.0189 157.761L53.5938 65.9142L49.5512 63.8468C49.0164 64.9926 48.6922 66.264 48.6922 67.4473Z" fill="#E6E6E6"/>
<path d="M54.248 161.517L50.105 159.247C49.0783 158.823 48.4862 157.625 48.4862 156.022V67.4473C48.4862 66.2826 48.7981 64.9732 49.3646 63.7599L49.4552 63.5663L53.7994 65.7882L53.7998 65.9134L54.225 157.76L54.248 161.517ZM50.3114 158.89L53.8319 160.819L53.813 157.763L53.3882 66.0411L49.6501 64.129C49.1644 65.2328 48.8986 66.4037 48.8986 67.4477V156.022C48.8986 157.469 49.407 158.532 50.2586 158.867L50.3114 158.892V158.89Z" fill="#E6E6E6"/>
<path d="M49.5512 63.8468L53.5938 65.9142L96.8567 40.7456L99.7452 39.0654L95.7533 36.8167L95.6396 36.7496V36.7455C95.0039 36.3623 94.17 36.3874 93.2521 36.9181L52.3009 60.5624C51.1976 61.1985 50.2125 62.4238 49.5512 63.8468Z" fill="#E0E0E0"/>
<path d="M53.5938 66.1206C53.5616 66.1206 53.5295 66.1132 53.5002 66.098L49.4577 64.0306C49.3592 63.9799 49.318 63.8608 49.3646 63.7603C50.0671 62.2478 51.0999 61.0172 52.1979 60.384L93.1495 36.7397C94.0971 36.1921 95.0196 36.1308 95.7463 36.5691C95.757 36.5757 95.7673 36.5831 95.7764 36.5914L95.8584 36.6404L99.8465 38.8866C99.9108 38.9229 99.9512 38.9909 99.9516 39.0646C99.952 39.1384 99.9129 39.2072 99.849 39.2442L53.6972 66.093C53.6655 66.1112 53.6296 66.1206 53.5938 66.1206ZM49.824 63.7549L53.5876 65.6802L99.3307 39.0687L95.535 36.9267C95.5238 36.9201 95.5135 36.9127 95.5041 36.9045C94.9157 36.5671 94.1548 36.635 93.3555 37.0965L52.4039 60.7407C51.4205 61.3077 50.4873 62.3999 49.824 63.7549Z" fill="#E0E0E0"/>
<path d="M52.6589 69.675V157.85C52.6589 159.239 53.101 160.237 53.8084 160.705L54.04 160.831C54.6547 161.122 55.4255 161.059 56.2635 160.575L76.0589 149.146L97.2147 136.412C99.2063 135.263 100.823 132.694 100.823 130.041V41.8703C100.823 40.5272 100.411 39.5545 99.7452 39.0658C99.6315 38.9818 99.5095 38.9101 99.3789 38.8594C98.7766 38.6023 98.0271 38.6786 97.2147 39.1458L56.2635 63.1889C55.2022 63.7994 54.2505 64.5629 53.5938 65.9147C53.0128 67.0979 52.6589 68.4328 52.6589 69.675Z" fill="#FAFAFA"/>
<path d="M97.2147 136.412C88.788 141.439 66.8664 154.522 56.0147 161.058C54.5937 161.914 52.7854 160.89 52.7854 159.231V68.5634C52.7854 66.4643 53.8982 64.5225 55.709 63.4612L97.4116 39.0205C98.8326 38.1879 100.622 39.2125 100.622 40.8597V130.412C100.622 132.872 99.3282 135.151 97.2147 136.412Z" fill="#FAFAFA"/>
<path d="M97.1109 136.234C90.4954 140.181 83.8815 144.129 77.2694 148.081C73.3549 150.421 69.4409 152.763 65.529 155.106C63.7413 156.177 61.9545 157.248 60.1681 158.321C59.3865 158.79 58.6054 159.259 57.8242 159.729C57.1032 160.163 56.3348 160.78 55.5384 161.057C54.2163 161.516 53.026 160.458 52.991 159.153C52.9853 158.943 52.991 158.731 52.991 158.521C52.991 157.501 52.991 156.481 52.991 155.461C52.991 151.491 52.991 147.52 52.991 143.549C52.991 137.864 52.991 132.179 52.991 126.494C52.991 120.107 52.991 113.719 52.991 107.331C52.991 101.316 52.991 95.3006 52.991 89.2854C52.991 84.6545 52.991 80.024 52.991 75.3931C52.991 73.179 52.9861 70.965 52.991 68.7509C52.996 66.5726 54.0486 64.6828 55.9311 63.57C56.8869 63.0051 57.8469 62.4473 58.8052 61.8857C63.296 59.2538 67.7868 56.622 72.278 53.9897C77.5994 50.8713 82.9204 47.7525 88.2417 44.634C91.2695 42.8595 94.2899 41.0715 97.3255 39.3102C98.2657 38.7647 99.4494 38.8182 100.103 39.8025C100.368 40.2021 100.414 40.6463 100.416 41.104C100.418 41.8942 100.416 42.684 100.416 43.4743C100.416 47.1229 100.416 50.772 100.416 54.4207C100.416 59.9456 100.416 65.4705 100.416 70.9954C100.416 77.3378 100.416 83.6801 100.416 90.0224C100.416 96.1415 100.416 102.26 100.416 108.379C100.416 113.174 100.416 117.97 100.416 122.765C100.416 125.199 100.416 127.633 100.416 130.066C100.416 132.598 99.3089 134.883 97.1109 136.234C96.8855 136.372 97.0919 136.729 97.3189 136.59C99.6113 135.181 100.828 132.78 100.828 130.122C100.828 129.279 100.828 128.436 100.828 127.592C100.828 123.814 100.828 120.036 100.828 116.258C100.828 110.601 100.828 104.944 100.828 99.2867C100.828 92.8092 100.828 86.3317 100.828 79.8543C100.828 73.7422 100.828 67.6302 100.828 61.5182C100.828 56.8206 100.828 52.123 100.828 47.4253C100.828 45.2722 100.851 43.1183 100.828 40.9652C100.807 39.0061 98.833 37.9638 97.1698 38.9233C96.1657 39.5022 95.1699 40.0954 94.17 40.6813C89.5556 43.3857 84.9408 46.09 80.3264 48.7944C74.9572 51.9413 69.5876 55.0881 64.2184 58.2346C61.3703 59.904 58.5126 61.5586 55.6731 63.2424C53.7009 64.4121 52.586 66.4445 52.5794 68.7253C52.5774 69.4669 52.5794 70.2081 52.5794 70.9497C52.5794 74.5526 52.5794 78.1556 52.5794 81.7589C52.5794 87.3008 52.5794 92.843 52.5794 98.3848C52.5794 104.835 52.5794 111.285 52.5794 117.734C52.5794 123.935 52.5794 130.135 52.5794 136.336C52.5794 141.266 52.5794 146.196 52.5794 151.126C52.5794 153.683 52.5794 156.241 52.5794 158.799C52.5794 158.941 52.5749 159.083 52.5794 159.224C52.6281 160.776 54.1207 161.964 55.648 161.453C56.4259 161.192 57.1601 160.608 57.8605 160.187C58.6568 159.708 59.4537 159.229 60.2505 158.751C62.0315 157.681 63.8134 156.613 65.5953 155.545C73.3867 150.877 81.1838 146.219 88.9821 141.564C91.7606 139.905 94.5396 138.247 97.3185 136.589C97.5464 136.454 97.3395 136.098 97.1109 136.234Z" fill="#EBEBEB"/>
<path d="M55.709 63.4612L97.4116 39.0205C98.8326 38.1879 100.621 39.2125 100.621 40.8597V44.7935L100.609 44.7943L52.7854 72.4049V68.563C52.7854 66.4643 53.8982 64.5225 55.709 63.4612Z" fill="#EBEBEB"/>
<path d="M84.3586 84.8972C88.588 77.572 88.5881 69.6544 84.359 67.2126C80.1299 64.7709 73.273 68.7297 69.0437 76.0548C64.8144 83.38 64.8142 91.2976 69.0433 93.7394C73.2724 96.1811 80.1293 92.2223 84.3586 84.8972Z" fill="#9D76C1"/>
<path opacity="0.5" d="M84.3586 84.8972C88.588 77.572 88.5881 69.6544 84.359 67.2126C80.1299 64.7709 73.273 68.7297 69.0437 76.0548C64.8144 83.38 64.8142 91.2976 69.0433 93.7394C73.2724 96.1811 80.1293 92.2223 84.3586 84.8972Z" fill="white"/>
<path d="M74.7607 80.5225C74.4921 80.5225 74.2745 80.305 74.2745 80.0364V76.8339C74.2745 75.4187 75.2345 73.7558 76.4602 73.048C77.1359 72.6578 77.7963 72.6096 78.32 72.9121C78.8436 73.2145 79.132 73.8106 79.132 74.5905V77.793C79.132 78.0616 78.9145 78.2792 78.6459 78.2792C78.3772 78.2792 78.1597 78.0616 78.1597 77.793V74.5905C78.1597 74.1785 78.041 73.8737 77.8338 73.7538C77.6266 73.6343 77.3031 73.6837 76.9464 73.8897C76.0251 74.4216 75.2469 75.7697 75.2469 76.8335V80.0359C75.2469 80.305 75.0293 80.5225 74.7607 80.5225Z" fill="#37474F"/>
<path d="M80.6288 75.7285C80.4401 75.6379 80.202 75.6552 79.9424 75.8051L73.4646 79.5453C73.205 79.6952 72.9669 79.9527 72.7782 80.2617C72.5231 80.6791 72.3592 81.19 72.3592 81.658V87.2661C72.3592 87.6724 72.4824 87.9686 72.6818 88.1202C72.7168 88.147 72.7551 88.1676 72.7951 88.1853C72.9813 88.2673 73.2128 88.2475 73.465 88.1021L79.9428 84.3624C80.5534 84.0097 81.0487 83.0637 81.0487 82.2496V76.6415C81.0482 76.1726 80.8839 75.8509 80.6288 75.7285Z" fill="#9D76C1"/>
<path d="M77.44 81.5723L78.0642 83.3678L75.8694 84.6347L76.4191 82.4173L76.4965 82.1034C76.1257 82.1141 75.8694 81.8273 75.8694 81.3226C75.8694 81.1294 75.9061 80.9259 75.972 80.7248C76.148 80.1925 76.5278 79.6759 76.967 79.4225C77.5731 79.0727 78.0646 79.3553 78.0646 80.0561C78.0646 80.5608 77.8071 81.1442 77.4363 81.5624L77.44 81.5723Z" fill="#455A64"/>
<path d="M76.4186 82.4173L76.4961 82.1033C76.1253 82.1141 75.869 81.8273 75.869 81.3226C75.869 81.1294 75.9057 80.9258 75.9716 80.7248L77.4395 81.5727L78.0637 83.3682L76.4186 82.4173Z" fill="#37474F"/>
<path d="M92.6782 101.21L60.7288 119.657C59.4071 120.42 58.3355 119.61 58.3355 117.848V113.007C58.3355 111.245 59.4071 109.198 60.7288 108.435L92.6786 89.989C94.0003 89.226 95.0719 90.036 95.0719 91.7981V96.6383C95.0715 98.4 93.9998 100.447 92.6782 101.21Z" fill="#9D76C1"/>
<path d="M66.4782 107.999H65.8602V113.122H66.4782V107.999Z" fill="#FAFAFA"/>
<path d="M68.2375 109.011L63.8008 111.573L64.1099 112.108L68.5466 109.546L68.2375 109.011Z" fill="#FAFAFA"/>
<path d="M64.752 109.39L64.443 109.925L67.5803 111.737L67.8893 111.201L64.752 109.39Z" fill="#FAFAFA"/>
<path d="M67.474 107.691L64.3362 113.125L64.8714 113.434L68.0092 108L67.474 107.691Z" fill="#FAFAFA"/>
<path d="M77.0127 102.261H76.3947V107.384H77.0127V102.261Z" fill="#FAFAFA"/>
<path d="M78.7714 103.273L74.335 105.835L74.6441 106.37L79.0804 103.808L78.7714 103.273Z" fill="#FAFAFA"/>
<path d="M75.287 103.653L74.978 104.188L78.1149 105.999L78.4239 105.464L75.287 103.653Z" fill="#FAFAFA"/>
<path d="M78.0087 101.953L74.8709 107.387L75.4061 107.696L78.5439 102.263L78.0087 101.953Z" fill="#FAFAFA"/>
<path d="M87.5467 96.5233H86.9287V101.646H87.5467V96.5233Z" fill="#FAFAFA"/>
<path d="M89.2976 97.5397L84.8608 100.101L85.1698 100.636L89.6066 98.0748L89.2976 97.5397Z" fill="#FAFAFA"/>
<path d="M85.8218 97.9152L85.5128 98.4504L88.6497 100.262L88.9587 99.7264L85.8218 97.9152Z" fill="#FAFAFA"/>
<path d="M88.5352 96.2098L85.398 101.643L85.9332 101.952L89.0704 96.5188L88.5352 96.2098Z" fill="#FAFAFA"/>
<path d="M93.6286 107.879C94.0563 107.879 94.2475 108.518 94.2475 109.152V113.992C94.2475 115.463 93.3402 117.231 92.2662 117.851L60.3168 136.297C60.1166 136.412 59.9303 136.473 59.7787 136.473C59.3511 136.473 59.1599 135.834 59.1599 135.201V130.361C59.1599 128.889 60.0671 127.122 61.1412 126.502L93.091 108.056C93.2904 107.94 93.4766 107.879 93.6286 107.879ZM93.6282 107.055C93.3369 107.055 93.0156 107.148 92.6782 107.342L60.7288 125.789C59.4071 126.552 58.3355 128.599 58.3355 130.361V135.201C58.3355 136.513 58.9292 137.297 59.7783 137.297C60.0696 137.297 60.3909 137.205 60.7284 137.01L92.6782 118.564C93.9998 117.801 95.0715 115.754 95.0715 113.992V109.152C95.0715 107.839 94.4774 107.055 93.6282 107.055Z" fill="#9D76C1"/>
<path d="M72.0605 126.706C71.7874 126.863 71.5519 126.93 71.3538 126.905C71.157 126.878 71.0051 126.769 70.8981 126.58C70.7923 126.388 70.7394 126.125 70.7394 125.789C70.7394 125.454 70.7923 125.128 70.8981 124.811C71.0051 124.492 71.1539 124.206 71.3446 123.953C71.5365 123.697 71.7604 123.495 72.0162 123.348C72.1638 123.262 72.3096 123.207 72.4535 123.18C72.5975 123.154 72.7285 123.171 72.8466 123.23C72.9646 123.289 73.0587 123.402 73.1289 123.57C73.199 123.739 73.234 123.975 73.234 124.281V124.494L71.0494 125.755V125.321L72.7912 124.315C72.7912 124.13 72.7592 123.984 72.6952 123.876C72.6325 123.767 72.5427 123.705 72.4259 123.689C72.3102 123.671 72.1737 123.708 72.0162 123.799C71.8428 123.899 71.6927 124.036 71.566 124.208C71.4405 124.379 71.344 124.562 71.2763 124.759C71.2087 124.956 71.1748 125.144 71.1748 125.325V125.615C71.1748 125.862 71.2117 126.05 71.2855 126.179C71.3606 126.306 71.4645 126.376 71.5974 126.389C71.7302 126.401 71.8846 126.355 72.0605 126.254C72.1749 126.188 72.2782 126.11 72.3705 126.019C72.464 125.927 72.5446 125.824 72.6122 125.709C72.6799 125.594 72.7322 125.468 72.7691 125.333L73.1898 125.227C73.1455 125.417 73.071 125.605 72.9665 125.79C72.8619 125.974 72.7328 126.146 72.579 126.304C72.4252 126.461 72.2524 126.595 72.0605 126.706ZM74.3319 123.357V125.326L73.8965 125.577V122.305L74.3172 122.062V122.573L74.3541 122.552C74.4205 122.347 74.5214 122.155 74.6567 121.977C74.792 121.796 74.9667 121.644 75.1807 121.521C75.3726 121.41 75.5405 121.358 75.6844 121.366C75.8283 121.372 75.9403 121.444 76.0202 121.581C76.1002 121.717 76.1402 121.924 76.1402 122.202V124.282L75.7047 124.533V122.488C75.7047 122.231 75.6469 122.064 75.5313 121.987C75.4156 121.909 75.257 121.928 75.0552 122.045C74.9162 122.125 74.792 122.231 74.6825 122.364C74.5742 122.496 74.4888 122.647 74.426 122.817C74.3633 122.987 74.3319 123.167 74.3319 123.357ZM78.1685 119.838V120.264L76.6997 121.112V120.686L78.1685 119.838ZM77.1278 119.655L77.5633 119.403V122.523C77.5633 122.665 77.5811 122.761 77.6168 122.811C77.6537 122.86 77.7004 122.88 77.757 122.871C77.8148 122.86 77.8757 122.837 77.9397 122.8C77.9877 122.772 78.027 122.746 78.0578 122.723C78.0885 122.698 78.1131 122.678 78.1316 122.663L78.2202 123.064C78.1906 123.094 78.1494 123.13 78.0965 123.174C78.0436 123.218 77.9766 123.264 77.8954 123.311C77.7724 123.382 77.6518 123.421 77.5337 123.428C77.4169 123.435 77.3197 123.398 77.2422 123.318C77.1659 123.237 77.1278 123.101 77.1278 122.911V119.655ZM79.9814 122.132C79.7083 122.29 79.4727 122.356 79.2747 122.332C79.0778 122.305 78.9259 122.196 78.8189 122.007C78.7131 121.815 78.6602 121.551 78.6602 121.216C78.6602 120.881 78.7131 120.555 78.8189 120.238C78.9259 119.919 79.0748 119.633 79.2654 119.379C79.4573 119.124 79.6812 118.922 79.9371 118.774C80.0847 118.689 80.2305 118.633 80.3744 118.607C80.5183 118.581 80.6493 118.598 80.7674 118.657C80.8855 118.715 80.9796 118.829 81.0497 118.997C81.1198 119.165 81.1549 119.402 81.1549 119.708V119.921L78.9702 121.182V120.747L80.7121 119.742C80.7121 119.557 80.6801 119.411 80.6161 119.303C80.5534 119.194 80.4636 119.132 80.3467 119.115C80.2311 119.098 80.0945 119.135 79.9371 119.226C79.7636 119.326 79.6136 119.463 79.4869 119.635C79.3614 119.806 79.2648 119.989 79.1972 120.186C79.1295 120.383 79.0957 120.571 79.0957 120.752V121.041C79.0957 121.289 79.1326 121.477 79.2064 121.606C79.2814 121.733 79.3854 121.803 79.5182 121.816C79.6511 121.827 79.8055 121.782 79.9814 121.681C80.0958 121.615 80.1991 121.536 80.2914 121.446C80.3848 121.354 80.4654 121.251 80.5331 121.136C80.6007 121.02 80.653 120.895 80.6899 120.76L81.1106 120.654C81.0663 120.844 80.9919 121.032 80.8873 121.217C80.7828 121.401 80.6536 121.572 80.4999 121.731C80.3461 121.888 80.1733 122.022 79.9814 122.132ZM81.8173 121.004V117.731L82.238 117.488V117.983L82.2675 117.966C82.3192 117.774 82.4127 117.589 82.548 117.41C82.6833 117.231 82.8358 117.092 83.0056 116.994C83.0376 116.976 83.0776 116.953 83.1255 116.927C83.1735 116.901 83.2098 116.882 83.2344 116.871V117.382C83.2196 117.386 83.1858 117.399 83.1329 117.421C83.0813 117.441 83.0265 117.468 82.9687 117.501C82.8309 117.581 82.7079 117.685 82.5997 117.814C82.4926 117.942 82.4078 118.082 82.345 118.234C82.2835 118.385 82.2528 118.534 82.2528 118.682V120.753L81.8173 121.004Z" fill="#9D76C1"/>
<path d="M140.653 52.8638C140.653 53.4595 141.079 54.1842 141.605 54.4821C142.131 54.78 142.557 54.5385 142.557 53.9428C142.557 53.347 142.131 52.6223 141.605 52.3244C141.079 52.0262 140.653 52.2676 140.653 52.8638Z" fill="#455A64"/>
<path d="M127.892 56.7015C127.162 56.7015 126.356 56.4638 125.524 55.9921L122.504 54.2806C122.405 54.2246 122.37 54.0989 122.426 53.9996C122.482 53.9003 122.608 53.8661 122.706 53.9222L125.727 55.6336C127.03 56.3719 128.24 56.4906 129.135 55.969C130.011 55.4585 130.493 54.3824 130.493 52.9387C130.493 51.3422 131.048 50.1392 132.056 49.5521C133.083 48.9535 134.439 49.0721 135.874 49.885L140.756 52.6507C140.855 52.7068 140.89 52.8324 140.833 52.9317C140.777 53.0306 140.65 53.0648 140.553 53.0096L135.671 50.2438C134.368 49.5059 133.158 49.3869 132.263 49.9085C131.387 50.4189 130.905 51.4951 130.905 52.9391C130.905 54.5356 130.35 55.7383 129.342 56.3254C128.911 56.5763 128.421 56.7015 127.892 56.7015Z" fill="#455A64"/>
<path d="M121.257 53.3565C121.257 53.8385 121.602 54.4244 122.027 54.6654C122.452 54.9064 122.797 54.7111 122.797 54.2291C122.797 53.7475 122.452 53.1612 122.027 52.9206C121.602 52.6796 121.257 52.8749 121.257 53.3565Z" fill="#455A64"/>
<path d="M140.653 88.8754C140.653 89.4712 141.079 90.1959 141.605 90.4938C142.131 90.7916 142.557 90.5502 142.557 89.9545C142.557 89.3587 142.131 88.634 141.605 88.3361C141.079 88.0378 140.653 88.2797 140.653 88.8754Z" fill="#455A64"/>
<path d="M140.69 89.3262C140.655 89.3262 140.62 89.3175 140.588 89.2994L135.707 86.5336C132.851 84.9157 130.529 80.9671 130.529 77.7308C130.529 74.6272 128.301 70.8389 125.561 69.2865L122.503 67.554C122.404 67.498 122.369 67.3723 122.425 67.273C122.481 67.1737 122.608 67.1391 122.706 67.1952L125.763 68.9276C128.619 70.5456 130.941 74.4942 130.941 77.7304C130.941 80.834 133.17 84.6219 135.909 86.1748L140.791 88.9405C140.89 88.9966 140.925 89.1222 140.869 89.2215C140.831 89.2887 140.761 89.3262 140.69 89.3262Z" fill="#455A64"/>
<path d="M121.257 66.5549C121.257 67.0365 121.602 67.6228 122.027 67.8638C122.452 68.1049 122.797 67.9096 122.797 67.4275C122.797 66.9455 122.452 66.3596 122.027 66.1186C121.602 65.8776 121.257 66.0729 121.257 66.5549Z" fill="#455A64"/>
<path d="M169.989 48.9802L149.809 37.5509C149.231 37.2172 148.712 37.2423 148.343 37.548L146.6 38.7536L147.789 40.2236V61.4931C147.789 62.9808 148.693 64.7091 149.809 65.3535L169.488 76.4936L169.58 78.0777L171.418 76.8186C171.783 76.5422 172.009 75.9992 172.009 75.2555V52.8403C172.009 51.3529 171.104 49.6246 169.989 48.9802Z" fill="#9D76C1"/>
<path opacity="0.3" d="M169.989 48.9802L149.809 37.5509C149.231 37.2172 148.712 37.2423 148.343 37.548L146.6 38.7536L147.789 40.2236V61.4931C147.789 62.9808 148.693 64.7091 149.809 65.3535L169.488 76.4936L169.58 78.0777L171.418 76.8186C171.783 76.5422 172.009 75.9992 172.009 75.2555V52.8403C172.009 51.3529 171.104 49.6246 169.989 48.9802Z" fill="black"/>
<path d="M168.273 77.964L148.094 66.5347C146.978 65.8903 146.073 64.162 146.073 62.6743V40.259C146.073 38.7713 146.978 38.0874 148.094 38.7317L168.273 50.161C169.389 50.8054 170.294 52.5337 170.294 54.0214V76.4367C170.294 77.9245 169.389 78.6084 168.273 77.964Z" fill="#9D76C1"/>
<path d="M164.033 58.5675C163.942 58.5675 163.859 58.5069 163.834 58.4146C163.413 56.8449 162.729 55.2892 161.858 53.9156C161.797 53.8196 161.825 53.6923 161.921 53.6313C162.017 53.5703 162.144 53.5983 162.205 53.6948C163.099 55.1034 163.8 56.6986 164.231 58.3079C164.261 58.4179 164.196 58.5304 164.086 58.5601C164.068 58.565 164.051 58.5675 164.033 58.5675Z" fill="white"/>
<path d="M164.496 62.7542C164.491 62.7542 164.487 62.7538 164.482 62.7538C164.369 62.7464 164.283 62.6483 164.29 62.5346C164.305 62.313 164.313 62.0843 164.313 61.8491C164.313 61.1717 164.25 60.4643 164.127 59.7458C164.108 59.6337 164.183 59.527 164.295 59.5081C164.408 59.4895 164.514 59.5641 164.533 59.6762C164.66 60.4174 164.725 61.1487 164.725 61.8486C164.725 62.093 164.717 62.3303 164.702 62.561C164.694 62.671 164.604 62.7542 164.496 62.7542Z" fill="white"/>
<path d="M151.894 55.9175C151.789 55.9175 151.698 55.8367 151.689 55.7292C151.658 55.372 151.642 55.0156 151.642 54.6699C151.642 52.6713 152.181 51.0204 153.159 50.0209C153.238 49.9398 153.369 49.9381 153.451 50.0176C153.532 50.0972 153.533 50.2278 153.454 50.3089C152.552 51.231 152.055 52.7797 152.055 54.6695C152.055 55.0032 152.07 55.3473 152.1 55.6929C152.11 55.8062 152.026 55.9063 151.913 55.9162C151.906 55.9175 151.9 55.9175 151.894 55.9175Z" fill="white"/>
<path d="M161.005 52.5848C160.945 52.5848 160.886 52.5589 160.846 52.509C159.981 51.4514 159.051 50.6365 158.082 50.0869C156.713 49.3115 155.429 49.1623 154.369 49.6547C154.267 49.7029 154.144 49.6584 154.096 49.5546C154.048 49.4516 154.093 49.3288 154.196 49.2806C155.381 48.7301 156.795 48.8842 158.285 49.728C159.299 50.3027 160.268 51.1506 161.164 52.2478C161.236 52.336 161.223 52.4657 161.135 52.5378C161.097 52.5696 161.051 52.5848 161.005 52.5848Z" fill="white"/>
<path d="M153.314 56.0753C153.204 56.0753 153.113 55.9888 153.108 55.8779C153.103 55.7498 153.1 55.6229 153.1 55.4964C153.1 54.033 153.459 52.8386 154.137 52.0431C154.212 51.9561 154.341 51.9458 154.428 52.02C154.514 52.0937 154.524 52.2239 154.451 52.3104C153.837 53.0306 153.513 54.1323 153.513 55.4964C153.513 55.6171 153.515 55.7387 153.521 55.8606C153.525 55.9744 153.437 56.0704 153.323 56.0749C153.32 56.0753 153.317 56.0753 153.314 56.0753Z" fill="white"/>
<path d="M154.931 51.8325C154.861 51.8325 154.794 51.7979 154.755 51.7344C154.695 51.6376 154.726 51.5107 154.823 51.451C155.338 51.1342 155.929 51.0056 156.572 51.0699C156.685 51.081 156.768 51.182 156.757 51.2953C156.745 51.4086 156.643 51.4893 156.531 51.4798C155.976 51.4246 155.475 51.5334 155.038 51.802C155.005 51.8226 154.968 51.8325 154.931 51.8325Z" fill="white"/>
<path d="M164.033 65.4046C163.952 65.4046 163.874 65.356 163.842 65.2757L163.6 64.6783C163.11 63.4633 162.852 62.2046 162.854 61.0378C162.854 57.5441 160.713 53.5007 158.082 52.0097C157.983 51.9536 157.948 51.828 158.005 51.7287C158.061 51.6294 158.187 51.5948 158.285 51.6512C161.032 53.2074 163.267 57.4114 163.267 61.023C163.265 62.1531 163.513 63.3578 163.983 64.5242L164.224 65.1216C164.267 65.227 164.216 65.3473 164.111 65.3898C164.085 65.4001 164.058 65.4046 164.033 65.4046Z" fill="white"/>
<path d="M154.575 63.0368C154.491 63.0368 154.411 62.9853 154.381 62.9017C153.342 60.0651 153.103 56.9153 153.101 56.8836C153.093 56.7703 153.178 56.6714 153.292 56.6632C153.391 56.6545 153.504 56.7398 153.512 56.8535C153.514 56.8844 153.749 59.9786 154.768 62.7596C154.807 62.8663 154.753 62.9845 154.645 63.0241C154.622 63.0331 154.598 63.0368 154.575 63.0368Z" fill="white"/>
<path d="M162.82 66.7943C162.737 66.7943 162.658 66.7432 162.627 66.66L162.078 65.1801C161.498 63.6178 161.192 62.0517 161.192 60.6509V59.031C161.192 57.109 159.811 54.7631 158.115 53.8019C157.322 53.3528 156.591 53.2778 156.054 53.5909C155.529 53.8966 155.24 54.548 155.24 55.4255V56.8556C155.24 58.9539 155.716 61.3036 156.618 63.6507L157.298 65.4236C157.339 65.5298 157.286 65.6489 157.18 65.6897C157.074 65.7301 156.954 65.6773 156.914 65.571L156.233 63.7982C155.314 61.4045 154.828 59.0038 154.828 56.8552V55.4251C154.828 54.3951 155.19 53.6173 155.846 53.2345C156.516 52.8444 157.394 52.9194 158.317 53.443C160.129 54.4697 161.604 56.9763 161.604 59.031V60.6509C161.604 62.0031 161.902 63.5197 162.464 65.0367L163.014 66.5166C163.053 66.6233 162.999 66.7415 162.892 66.7815C162.868 66.7902 162.844 66.7943 162.82 66.7943Z" fill="white"/>
<path d="M161.005 67.3843C160.916 67.3843 160.834 67.3262 160.808 67.2368L160.521 66.2677C159.975 64.4273 159.699 62.6557 159.699 61.0028V58.4966C159.699 57.4637 158.956 56.2026 158.044 55.6859C157.636 55.4548 157.263 55.4128 156.997 55.5689C156.736 55.721 156.593 56.0526 156.593 56.5033C156.593 59.2852 157.44 62.4955 158.979 65.5422L159.558 66.6888C159.609 66.7906 159.568 66.9142 159.467 66.9657C159.365 67.0163 159.241 66.976 159.19 66.8746L158.611 65.728C157.044 62.6244 156.181 59.3486 156.181 56.5029C156.181 55.8994 156.397 55.4412 156.79 55.2126C157.188 54.9802 157.707 55.021 158.247 55.3271C159.275 55.9092 160.111 57.3311 160.111 58.4962V61.0024C160.111 62.6162 160.381 64.3478 160.916 66.1503L161.203 67.1193C161.235 67.2285 161.173 67.3431 161.064 67.3756C161.044 67.3818 161.024 67.3843 161.005 67.3843Z" fill="white"/>
<path d="M158.695 63.0369C158.601 63.0369 158.515 62.9709 158.494 62.8741L158.305 61.9929C158.124 61.1474 158.031 60.2802 158.031 59.4158V57.0938C158.031 56.98 158.124 56.8878 158.237 56.8878C158.351 56.8878 158.443 56.98 158.443 57.0938V59.4158C158.443 60.2513 158.532 61.0897 158.708 61.9063L158.898 62.7876C158.922 62.8988 158.851 63.0084 158.74 63.0323C158.724 63.0356 158.71 63.0369 158.695 63.0369Z" fill="white"/>
<path d="M152.341 58.5675C152.236 58.5675 152.147 58.4884 152.137 58.3817L152.017 57.1766C152.006 57.0637 152.088 56.9623 152.201 56.9512C152.324 56.9438 152.415 57.0225 152.426 57.1358L152.546 58.3409C152.557 58.4538 152.475 58.5547 152.362 58.5662C152.355 58.5671 152.348 58.5675 152.341 58.5675Z" fill="white"/>
<path d="M169.989 87.1528L149.809 75.7235C149.231 75.3898 148.712 75.4149 148.343 75.7207L146.6 76.9262L147.789 78.3962V99.6661C147.789 101.154 148.693 102.882 149.809 103.527L169.488 114.667L169.58 116.251L171.418 114.992C171.783 114.715 172.009 114.172 172.009 113.429V91.0133C172.009 89.5251 171.104 87.7968 169.989 87.1528Z" fill="#9D76C1"/>
<path opacity="0.3" d="M169.989 87.1528L149.809 75.7235C149.231 75.3898 148.712 75.4149 148.343 75.7207L146.6 76.9262L147.789 78.3962V99.6661C147.789 101.154 148.693 102.882 149.809 103.527L169.488 114.667L169.58 116.251L171.418 114.992C171.783 114.715 172.009 114.172 172.009 113.429V91.0133C172.009 89.5251 171.104 87.7968 169.989 87.1528Z" fill="black"/>
<path d="M168.273 116.137L148.094 104.707C146.978 104.063 146.073 102.335 146.073 100.847V78.4316C146.073 76.9439 146.978 76.26 148.094 76.9043L168.273 88.3336C169.389 88.978 170.294 90.7063 170.294 92.1941V114.609C170.294 116.097 169.389 116.781 168.273 116.137Z" fill="#9D76C1"/>
<path d="M150.565 84.6858C150.451 84.6858 150.359 84.5935 150.359 84.4798V83.0901C150.359 82.8091 150.505 82.5566 150.75 82.4136C151 82.2677 151.3 82.2657 151.552 82.4086L153.009 83.2339C153.107 83.2899 153.142 83.4156 153.086 83.5149C153.03 83.6142 152.903 83.6479 152.805 83.5927L151.349 82.7675C151.225 82.6979 151.08 82.6987 150.957 82.77C150.839 82.8392 150.771 82.9558 150.771 83.0905V84.4802C150.771 84.5935 150.679 84.6858 150.565 84.6858Z" fill="white"/>
<path d="M152.908 103.793C152.873 103.793 152.838 103.784 152.806 103.766L151.445 102.995C150.775 102.616 150.359 101.907 150.359 101.147V99.8659C150.359 99.7522 150.451 99.6599 150.565 99.6599C150.679 99.6599 150.771 99.7522 150.771 99.8659V101.147C150.771 101.759 151.107 102.33 151.648 102.637L153.009 103.408C153.108 103.464 153.143 103.59 153.086 103.689C153.049 103.755 152.979 103.793 152.908 103.793Z" fill="white"/>
<path d="M165.211 110.676C165.075 110.676 164.938 110.641 164.814 110.57L163.358 109.745C163.259 109.689 163.224 109.563 163.28 109.464C163.336 109.365 163.462 109.331 163.56 109.386L165.017 110.211C165.141 110.281 165.287 110.28 165.409 110.209C165.527 110.14 165.595 110.023 165.595 109.889V108.499C165.595 108.385 165.687 108.293 165.801 108.293C165.915 108.293 166.007 108.385 166.007 108.499V109.889C166.007 110.169 165.861 110.422 165.616 110.565C165.49 110.639 165.35 110.676 165.211 110.676Z" fill="white"/>
<path d="M165.802 93.3188C165.688 93.3188 165.596 93.2265 165.596 93.1128V91.8319C165.596 91.2197 165.26 90.6487 164.718 90.3421L163.358 89.5709C163.259 89.5148 163.224 89.3892 163.28 89.2899C163.336 89.191 163.462 89.156 163.56 89.212L164.921 89.9833C165.591 90.3627 166.008 91.071 166.008 91.8315V93.1124C166.008 93.227 165.915 93.3188 165.802 93.3188Z" fill="white"/>
<path d="M152.392 91.6168C152.423 94.0522 152.817 96.3977 153.386 98.5401C154.955 104.445 161.129 108.077 162.826 104.076C163.502 102.483 163.976 100.448 163.976 97.8743C163.976 94.2487 161.382 89.8403 158.182 88.0275C154.921 86.1797 152.345 87.8948 152.392 91.6168Z" fill="white"/>
<path d="M157.977 94.9166V98.7984L156.291 97.5361L157.977 94.9166Z" fill="#E0E0E0"/>
<path d="M154.84 92.5987C154.84 92.9464 155.089 93.3691 155.396 93.5434C155.703 93.7172 155.952 93.5763 155.952 93.2286C155.952 92.8809 155.703 92.4582 155.396 92.2839C155.089 92.11 154.84 92.2509 154.84 92.5987Z" fill="#E0E0E0"/>
<path d="M160.002 95.5543C160.002 95.9021 160.251 96.3248 160.558 96.4991C160.865 96.6729 161.114 96.532 161.114 96.1843C161.114 95.8366 160.865 95.4139 160.558 95.2396C160.251 95.0657 160.002 95.2066 160.002 95.5543Z" fill="#E0E0E0"/>
<path d="M157.421 100.698L159.304 100.379C159.304 100.379 158.903 102.391 157.421 100.698Z" fill="#E0E0E0"/>
<path d="M127.052 104.32C127.052 104.32 130.055 104.118 131.758 108.292C132.817 110.887 134.107 114.896 134.931 117.559C135.443 119.214 134.914 121.013 133.588 122.126L128.351 126.52L126.477 123.113C126.477 123.113 128.497 120.417 130.055 119.024L126.477 108.291L127.052 104.32Z" fill="#FFA8A7"/>
<path d="M128.436 117.065C128.436 117.065 133.207 117.696 134.399 114.016C134.399 114.016 132.355 108.632 131.418 106.844C130.481 105.055 128.563 103.756 127.052 104.32C125.54 104.884 128.436 117.065 128.436 117.065Z" fill="#9D76C1"/>
<path opacity="0.4" d="M128.436 117.065C128.436 117.065 133.207 117.696 134.399 114.016C134.399 114.016 132.355 108.632 131.418 106.844C130.481 105.055 128.563 103.756 127.052 104.32C125.54 104.884 128.436 117.065 128.436 117.065Z" fill="white"/>
<path d="M125.253 165.377C125.253 165.377 122.985 163.435 122.105 163.344C121.225 163.253 119.699 164.761 120.988 167.38C121.346 168.108 122.803 168.897 123.714 170.293C124.624 171.689 125.443 172.738 126.84 172.547C128.235 172.356 128.418 171.568 128.326 170.657C128.235 169.746 127.826 168.184 127.826 168.184L125.253 165.377Z" fill="#37474F"/>
<path d="M126.914 172.129C125.475 172.326 124.63 171.244 123.692 169.805C122.753 168.367 121.252 167.553 120.882 166.802C120.72 166.472 120.602 166.16 120.52 165.865C120.572 166.317 120.714 166.821 120.988 167.379C121.346 168.108 122.803 168.897 123.714 170.292C124.624 171.688 125.443 172.738 126.84 172.547C127.909 172.401 128.263 171.902 128.331 171.269C128.146 171.696 127.74 172.016 126.914 172.129Z" fill="#263238"/>
<path d="M124.044 167.872C124.009 167.872 123.973 167.864 123.94 167.846C123.833 167.789 123.793 167.656 123.85 167.549C123.879 167.494 124.587 166.194 125.982 165.877C126.103 165.85 126.219 165.925 126.246 166.043C126.273 166.162 126.198 166.28 126.08 166.307C124.885 166.578 124.245 167.745 124.238 167.756C124.199 167.83 124.123 167.872 124.044 167.872Z" fill="#EBEBEB"/>
<path d="M123.197 167.092C123.162 167.092 123.127 167.084 123.094 167.066C122.987 167.009 122.946 166.876 123.003 166.769C123.032 166.713 123.74 165.413 125.136 165.097C125.256 165.069 125.372 165.144 125.399 165.263C125.426 165.382 125.352 165.5 125.233 165.526C124.038 165.798 123.398 166.964 123.392 166.976C123.352 167.05 123.276 167.092 123.197 167.092Z" fill="#EBEBEB"/>
<path d="M122.229 166.312C122.194 166.312 122.159 166.303 122.126 166.286C122.019 166.228 121.978 166.095 122.035 165.988C122.064 165.933 122.772 164.634 124.167 164.317C124.287 164.289 124.404 164.364 124.431 164.483C124.458 164.601 124.384 164.719 124.265 164.746C123.07 165.018 122.43 166.184 122.424 166.195C122.384 166.269 122.308 166.312 122.229 166.312Z" fill="#EBEBEB"/>
<path d="M113.19 171.743C113.19 171.743 110.152 170.757 109.245 171.029C108.339 171.301 107.452 173.418 109.801 175.474C110.454 176.046 112.217 176.226 113.69 177.23C115.163 178.234 116.403 178.934 117.703 178.171C119.003 177.409 118.897 176.533 118.665 175.582C118.371 174.37 118.134 173.49 118.134 173.49L113.19 171.743Z" fill="#37474F"/>
<path d="M117.605 177.728C116.265 178.514 114.986 177.793 113.468 176.758C111.95 175.723 110.133 175.537 109.46 174.948C109.164 174.688 108.919 174.428 108.716 174.171C108.954 174.596 109.301 175.036 109.801 175.474C110.455 176.046 112.218 176.226 113.69 177.23C115.163 178.235 116.403 178.934 117.703 178.172C118.699 177.588 118.845 176.95 118.651 176.296C118.644 176.793 118.375 177.277 117.605 177.728Z" fill="#263238"/>
<path d="M112.465 174.547C112.457 174.547 112.45 174.547 112.443 174.546C112.322 174.534 112.234 174.427 112.245 174.306C112.252 174.24 112.415 172.672 113.658 171.79C113.756 171.72 113.893 171.743 113.965 171.842C114.035 171.942 114.012 172.079 113.913 172.149C112.837 172.913 112.685 174.334 112.684 174.348C112.673 174.462 112.577 174.547 112.465 174.547Z" fill="#EBEBEB"/>
<path d="M113.719 174.958C113.712 174.958 113.705 174.957 113.698 174.957C113.576 174.945 113.488 174.838 113.5 174.717C113.506 174.651 113.67 173.083 114.912 172.201C115.011 172.131 115.148 172.154 115.219 172.253C115.29 172.352 115.266 172.49 115.167 172.56C114.092 173.324 113.939 174.745 113.938 174.759C113.927 174.873 113.831 174.958 113.719 174.958Z" fill="#EBEBEB"/>
<path d="M111.308 174.125C111.3 174.125 111.293 174.124 111.286 174.124C111.165 174.112 111.076 174.004 111.088 173.884C111.095 173.817 111.258 172.25 112.5 171.368C112.599 171.298 112.736 171.321 112.807 171.42C112.878 171.519 112.854 171.656 112.755 171.727C111.68 172.491 111.528 173.912 111.527 173.926C111.515 174.04 111.419 174.125 111.308 174.125Z" fill="#EBEBEB"/>
<path d="M127.968 165.956C128.24 162.947 128.829 158.234 129.074 156.03C129.512 152.093 129.111 149.09 128.837 147.662C128.711 147.008 128.676 146.347 128.742 145.684C129.338 139.693 129.729 129.984 129.398 127.849L120.988 129.629C120.988 129.629 122.018 143.252 122.469 147.784C122.924 152.345 124.615 165.995 124.615 165.995C125.318 166.409 126.594 166.862 127.968 165.956Z" fill="#455A64"/>
<path d="M126.756 169.049C127.484 168.935 127.825 168.184 127.825 168.184C127.825 167.71 127.88 166.918 127.967 165.956C126.594 166.862 125.318 166.409 124.614 165.995L124.912 168.525C125.254 168.912 126.028 169.163 126.756 169.049Z" fill="#FFA8A7"/>
<path d="M118.506 171.242C118.85 166.689 119.512 157.865 119.601 156.479C119.69 155.081 119.535 153.156 119.311 151.9C119.165 151.083 119.177 150.247 119.324 149.431L123.02 128.924L112.858 128.775L112.193 150.259C112.184 150.537 112.195 150.815 112.224 151.091L114.38 171.114C114.38 171.114 116.481 172.877 118.506 171.242Z" fill="#455A64"/>
<path d="M116.812 175.002C117.543 174.933 118.2 174.316 118.302 173.955C118.302 173.955 118.384 172.868 118.506 171.242C116.482 172.877 114.379 171.114 114.379 171.114L114.703 174.117C114.703 174.117 115.18 175.154 116.812 175.002Z" fill="#FFA8A7"/>
<path d="M117.553 105.685L115.156 106.505L112.576 118.704L112.701 129.522C112.701 129.522 114.543 130.99 121.738 130.99C125.777 130.99 128.406 129.469 129.398 127.849L128.751 121.314C128.751 121.314 129.398 114.875 129.398 111.691C129.398 108.508 129.54 105.898 127.051 104.32L124.836 104.502L117.553 105.685Z" fill="#9D76C1"/>
<path opacity="0.2" d="M117.553 105.685L115.156 106.505L112.576 118.704L112.701 129.522C112.701 129.522 114.543 130.99 121.738 130.99C125.777 130.99 128.406 129.469 129.398 127.849L128.751 121.314C128.751 121.314 129.398 114.875 129.398 111.691C129.398 108.508 129.54 105.898 127.051 104.32L124.836 104.502L117.553 105.685Z" fill="white"/>
<path d="M114.95 95.2021L113.749 97.5781C113.675 97.7247 113.748 97.9031 113.904 97.9551L115.329 98.4297L114.95 95.2021Z" fill="#F28F8F"/>
<path d="M116.613 91.2164C116.613 91.2164 114.792 92.1973 114.792 97.8261C114.792 100.921 115.004 102.894 116.613 102.773C118.221 102.651 122.849 102.044 122.849 102.044V91.2164H116.613Z" fill="#FFA8A7"/>
<path d="M116.612 102.772C117.178 102.73 118.117 102.627 119.096 102.511V101.937C118.195 102.399 116.588 102.723 116.344 102.77C116.429 102.778 116.518 102.78 116.612 102.772Z" fill="#F28F8F"/>
<path d="M118.82 101.698V105.231H123.653V100.266L118.82 101.698Z" fill="#FFA8A7"/>
<path d="M118.82 103.885C118.82 103.885 120.557 104.502 121.953 104.259C123.349 104.017 123.653 103.167 123.653 103.167C123.653 103.167 124.108 103.132 124.836 104.502C124.836 104.502 123.983 106.207 122.014 106.323C119.435 106.474 117.553 105.685 117.553 105.685C117.553 105.685 118.225 103.709 118.82 103.885Z" fill="#9D76C1"/>
<path opacity="0.4" d="M118.82 103.885C118.82 103.885 120.557 104.502 121.953 104.259C123.349 104.017 123.653 103.167 123.653 103.167C123.653 103.167 124.108 103.132 124.836 104.502C124.836 104.502 123.983 106.207 122.014 106.323C119.435 106.474 117.553 105.685 117.553 105.685C117.553 105.685 118.225 103.709 118.82 103.885Z" fill="white"/>
<path d="M108.04 114.365L106.742 116.362C106.742 116.362 103.59 114.957 101.375 114.105C99.161 113.253 97.8405 112.07 97.8405 112.07C97.8405 112.07 98.0111 110.379 98.2665 109.517C98.522 108.654 98.6073 107.93 97.8405 108.313C97.0738 108.696 96.5629 110.187 96.5205 110.357C96.5205 110.357 92.0911 105.907 91.5373 106.003C90.9836 106.099 91.1117 106.769 92.3041 108.143C93.496 109.517 93.496 109.517 93.496 109.517C93.496 109.517 90.7793 111.081 91.2222 112.785C91.6651 114.489 95.2425 115.255 95.2425 115.255C95.2425 115.255 105.717 123.305 108.04 121.857C110.362 120.409 113.641 116.235 113.641 116.235L108.04 114.365Z" fill="#FFA8A7"/>
<path d="M116.107 106.194C116.107 106.194 118.04 107.784 116.78 111.071C115.52 114.358 112.304 118.329 112.304 118.329C112.304 118.329 108.931 117.281 107.63 114.557L111.882 107.904C112.496 106.943 113.527 106.332 114.665 106.257C115.066 106.231 115.543 106.209 116.107 106.194Z" fill="#9D76C1"/>
<path opacity="0.4" d="M116.107 106.194C116.107 106.194 118.04 107.784 116.78 111.071C115.52 114.358 112.304 118.329 112.304 118.329C112.304 118.329 108.931 117.281 107.63 114.557L111.882 107.904C112.496 106.943 113.527 106.332 114.665 106.257C115.066 106.231 115.543 106.209 116.107 106.194Z" fill="white"/>
<path d="M115.915 87.9027C115.915 87.9027 114.005 87.6489 113.517 88.9648C113.214 89.7843 114.185 90.4216 114.185 90.4216C114.185 90.4216 112.953 91.5814 114.792 91.939C114.792 91.939 114.64 93.517 116.279 93.3044C116.279 93.3044 116.066 94.5556 117.675 94.9924C117.675 94.9924 116.862 97.1587 118.391 97.1887H119.823L119.246 98.8577C119.246 98.8577 120.315 101.437 123.653 101.437C123.653 101.437 124.503 99.6772 124.897 99.1614C125.292 98.6456 127.355 96.0055 127.355 93.9117C127.355 91.8179 126.55 90.5774 125.435 90.3021C125.435 90.3021 124.958 89.1473 123.835 88.3884C122.713 87.6299 120.346 86.953 119.01 87.8833C119.01 87.8833 117.827 86.3313 117.008 86.3313C116.188 86.3309 115.915 87.1742 115.915 87.9027Z" fill="#263238"/>
<path d="M118.391 97.1887C118.391 97.1887 118.251 94.9924 120.103 94.9924C121.954 94.9924 121.514 98.8577 119.246 98.8577L118.391 97.1887Z" fill="#FFA8A7"/>
</svg>
