<svg width="21" height="19" viewBox="0 0 21 19" fill="none" xmlns="http://www.w3.org/2000/svg">
<path d="M19.7106 6.46275L18.2742 2.15355C17.8447 0.8652 16.6446 0 15.2869 0H5.71305C4.3554 0 3.15525 0.8652 2.7258 2.15355L1.2894 6.46275C0.53235 6.77985 0 7.52745 0 8.4V13.65C0 14.4249 0.4242 15.0948 1.05 15.4591V16.6918V17.85C1.05 18.4306 1.51935 18.9 2.1 18.9H3.15C3.73065 18.9 4.2 18.4306 4.2 17.85V15.75H16.8V17.85C16.8 18.4306 17.2693 18.9 17.85 18.9H18.9C19.4806 18.9 19.95 18.4306 19.95 17.85V15.4591C20.5758 15.0948 21 14.4259 21 13.65V8.4C21 7.52745 20.4676 6.77985 19.7106 6.46275ZM5.71305 2.1H15.2859C15.7384 2.1 16.1395 2.3877 16.2823 2.8182L17.4437 6.3H16.6099H4.39005H3.55635L4.7166 2.8182C4.86045 2.3877 5.26155 2.1 5.71305 2.1ZM3.675 12.6C2.8056 12.6 2.1 11.8944 2.1 11.025C2.1 10.1556 2.8056 9.45 3.675 9.45C4.5444 9.45 5.25 10.1556 5.25 11.025C5.25 11.8944 4.5444 12.6 3.675 12.6ZM17.325 12.6C16.4556 12.6 15.75 11.8944 15.75 11.025C15.75 10.1556 16.4556 9.45 17.325 9.45C18.1944 9.45 18.9 10.1556 18.9 11.025C18.9 11.8944 18.1944 12.6 17.325 12.6Z" fill="white"/>
</svg>
