<svg width="19" height="21" viewBox="0 0 19 21" fill="none" xmlns="http://www.w3.org/2000/svg">
<path fill-rule="evenodd" clip-rule="evenodd" d="M10.6968 16.0086C10.6739 16.4157 10.4235 18.1652 10.3758 18.4966H9.65551V21H15.2881V18.4966H14.5664C14.9428 17.9119 15.3502 17.4993 15.7616 17.0827C16.2066 16.6321 16.6562 16.1768 17.0758 15.4939C17.1813 15.3222 17.2881 15.1574 17.3917 14.9976C17.7658 14.4205 18.0974 13.9089 18.1674 13.3806C18.2568 12.7061 18.382 8.65225 18.183 8.03461C17.9839 7.41702 16.7748 7.04988 16.3285 8.41527C16.1083 9.08904 16.0262 9.95943 15.9517 10.7489C15.8753 11.5593 15.8069 12.2844 15.6054 12.6237C15.2077 13.2934 13.9359 14.9531 13.9359 14.9531L15.0454 12.8663C15.0454 12.8663 15.2141 12.5776 15.1389 12.0223C15.0637 11.467 14.4336 10.6798 14.1187 11.2894C13.8038 11.899 13.2635 12.4436 13.2635 12.4436L11.3475 14.7488C11.3475 14.7488 10.7221 15.5583 10.6968 16.0086ZM7.59244 16.0086C7.61533 16.4157 7.86567 18.1652 7.9134 18.4966H8.63371V21H3.0011V18.4966H3.72279C3.34648 17.9119 2.93899 17.4993 2.5277 17.0828C2.08262 16.6321 1.63301 16.1768 1.2134 15.4939C1.10794 15.3223 1.00109 15.1574 0.897498 14.9976C0.523426 14.4205 0.191875 13.909 0.121872 13.3807C0.0324777 12.7061 -0.0927712 8.65231 0.106275 8.03466C0.305316 7.41707 1.51445 7.04993 1.9607 8.41533C2.18089 9.08909 2.26302 9.95948 2.33747 10.7489C2.41392 11.5593 2.48233 12.2844 2.68383 12.6237C3.08154 13.2934 4.35333 14.9532 4.35333 14.9532L3.24386 12.8663C3.24386 12.8663 3.07514 12.5777 3.15031 12.0223C3.22548 11.467 3.85567 10.6799 4.17053 11.2894C4.48539 11.899 5.02571 12.4437 5.02571 12.4437L6.94172 14.7488C6.94172 14.7488 7.56709 15.5584 7.59244 16.0086Z" fill="white"/>
<path d="M13.0981 4.09644C14.2292 4.09644 15.1463 3.17944 15.1463 2.04822C15.1463 0.917045 14.2292 0 13.0981 0C11.9669 0 11.0498 0.917045 11.0498 2.04822C11.0498 3.17944 11.9669 4.09644 13.0981 4.09644Z" fill="white"/>
<path d="M14.1088 6.06345H13.4046L12.2411 4.89837C12.0561 4.60189 11.7982 4.35774 11.4921 4.18907C11.1859 4.02045 10.8418 3.93294 10.4923 3.93494H8.25575L8.46872 8.19191H10.3843C10.6684 8.1915 10.9494 8.13399 11.2108 8.02272C11.4722 7.91145 11.7085 7.74877 11.9057 7.54431L12.2339 7.873C12.3343 7.97633 12.4551 8.0577 12.5885 8.11208C12.7218 8.16646 12.8651 8.19257 13.0091 8.18883C13.0215 8.18883 13.0323 8.19191 13.0446 8.19191H14.1088C14.3911 8.19191 14.6618 8.07977 14.8614 7.88022C15.0609 7.68062 15.1731 7.4099 15.1731 7.12765C15.1731 6.84546 15.0609 6.57473 14.8614 6.37514C14.6618 6.17559 14.3911 6.06345 14.1088 6.06345Z" fill="white"/>
<path d="M6.19315 4.99925L5.1289 6.06345H3.89443C3.61219 6.06345 3.34146 6.17559 3.14192 6.37519C2.94232 6.57474 2.83018 6.84546 2.83018 7.12771C2.83018 7.40995 2.94232 7.68067 3.14192 7.88022C3.34146 8.07982 3.61219 8.19196 3.89443 8.19196H5.48897C5.50183 8.19196 5.51263 8.19196 5.52497 8.18884C5.66901 8.19252 5.81223 8.16631 5.94557 8.11198C6.07901 8.05765 6.19971 7.97628 6.30017 7.87305L7.68328 6.48938C7.78124 6.39142 7.85897 6.27513 7.91192 6.14717C7.96496 6.01921 7.99226 5.88203 7.99226 5.74352C7.99226 5.60501 7.96496 5.46788 7.91192 5.33992C7.85897 5.2119 7.78124 5.09562 7.68328 4.99771C7.58538 4.89975 7.46909 4.82202 7.34113 4.76903C7.21317 4.71603 7.07599 4.68874 6.93747 4.68874C6.79891 4.68874 6.66178 4.71603 6.53382 4.76903C6.40586 4.82202 6.28957 4.89975 6.19161 4.99771L6.19315 4.99925Z" fill="white"/>
</svg>
