<svg width="27" height="21" viewBox="0 0 27 21" fill="none" xmlns="http://www.w3.org/2000/svg">
<path d="M12.2209 1.81148C12.6384 1.81148 12.9768 1.47306 12.9768 1.05559C12.9768 0.638125 12.6384 0.299702 12.2209 0.299702C11.8034 0.299702 11.465 0.638125 11.465 1.05559C11.465 1.47306 11.8034 1.81148 12.2209 1.81148Z" fill="white"/>
<path d="M12.2209 1.94917C12.0441 1.94917 11.8713 1.89672 11.7243 1.79848C11.5773 1.70023 11.4628 1.56059 11.3952 1.39723C11.3276 1.23387 11.31 1.05413 11.3446 0.880758C11.3792 0.707384 11.4644 0.548167 11.5895 0.423253C11.7146 0.298339 11.874 0.213344 12.0474 0.179021C12.2208 0.144697 12.4006 0.162589 12.5638 0.230433C12.7271 0.298277 12.8665 0.413023 12.9646 0.560152C13.0626 0.707281 13.1148 0.880179 13.1145 1.05697C13.1138 1.29361 13.0193 1.52033 12.8519 1.68753C12.6844 1.85473 12.4575 1.9488 12.2209 1.94917ZM12.2209 0.434634C12.0988 0.434637 11.9795 0.470792 11.8779 0.53854C11.7763 0.606288 11.6971 0.702597 11.6502 0.815318C11.6033 0.92804 11.5908 1.05213 11.6143 1.17193C11.6378 1.29174 11.6963 1.4019 11.7823 1.48852C11.8684 1.57514 11.9781 1.63434 12.0978 1.65866C12.2174 1.68297 12.3416 1.67132 12.4546 1.62516C12.5677 1.57901 12.6645 1.50041 12.7329 1.39929C12.8013 1.29817 12.8383 1.17906 12.8391 1.05697C12.8391 0.892885 12.774 0.7355 12.6581 0.619345C12.5422 0.50319 12.385 0.437752 12.2209 0.437388V0.434634Z" fill="white"/>
<path d="M15.1024 3.48305C15.3067 2.86343 13.8694 1.83258 11.8921 1.18057C9.91484 0.528557 8.14631 0.502296 7.94199 1.12191C7.73767 1.74153 9.17494 2.77238 11.1522 3.42439C13.1295 4.0764 14.898 4.10266 15.1024 3.48305Z" fill="white"/>
<path d="M13.8731 4.06813C13.0801 4.06813 12.0571 3.86711 11.107 3.55457C10.2339 3.28163 9.40511 2.88323 8.6466 2.37186C7.97746 1.89134 7.68281 1.44386 7.8081 1.07762C8.07659 0.263902 10.1336 0.455284 11.9387 1.04871C12.8117 1.32121 13.6405 1.71915 14.3991 2.23004C15.0682 2.71056 15.3629 3.15804 15.2362 3.52428C15.1095 3.89052 14.5808 4.06813 13.8731 4.06813ZM9.17531 0.809133C8.54885 0.809133 8.14405 0.938557 8.07384 1.16298C8.00362 1.38741 8.27348 1.76191 8.81045 2.14743C9.54595 2.64313 10.3498 3.02903 11.1965 3.29297C13.2301 3.96212 14.819 3.90704 14.9732 3.43891C15.0503 3.2076 14.775 2.83999 14.2366 2.45447C13.498 1.9582 12.6909 1.57229 11.8409 1.30893C10.9829 1.00789 10.0841 0.839355 9.17531 0.809133Z" fill="white"/>
<path d="M26.0734 19.968H0.912848C0.912848 19.3362 1.1638 18.7304 1.6105 18.2837C2.05721 17.837 2.66306 17.586 3.29479 17.586H23.6914C24.3232 17.586 24.929 17.837 25.3757 18.2837C25.8224 18.7304 26.0734 19.3362 26.0734 19.968Z" fill="white"/>
<path d="M26.0734 20.107H0.912854C0.876338 20.107 0.841317 20.0925 0.815496 20.0667C0.789675 20.0409 0.775169 20.0059 0.775169 19.9694C0.775898 19.3013 1.04159 18.6609 1.51396 18.1885C1.98632 17.7161 2.62678 17.4505 3.2948 17.4497H23.6914C24.3595 17.4505 24.9999 17.7161 25.4723 18.1885C25.9446 18.6609 26.2103 19.3013 26.2111 19.9694C26.2111 20.0059 26.1966 20.0409 26.1707 20.0667C26.1449 20.0925 26.1099 20.107 26.0734 20.107ZM1.05467 19.8317H25.9316C25.8959 19.2616 25.6444 18.7265 25.2283 18.3352C24.8122 17.9439 24.2626 17.7257 23.6914 17.7251H3.2948C2.7236 17.7257 2.17408 17.9439 1.75796 18.3352C1.34184 18.7265 1.09037 19.2616 1.05467 19.8317Z" fill="white"/>
<path d="M21.0355 17.7251C20.999 17.7251 20.964 17.7106 20.9381 17.6848C20.9123 17.6589 20.8978 17.6239 20.8978 17.5874V15.8994C20.8978 15.8629 20.9123 15.8279 20.9381 15.802C20.964 15.7762 20.999 15.7617 21.0355 15.7617C21.072 15.7617 21.107 15.7762 21.1328 15.802C21.1587 15.8279 21.1732 15.8629 21.1732 15.8994V17.5874C21.1732 17.6239 21.1587 17.6589 21.1328 17.6848C21.107 17.7106 21.072 17.7251 21.0355 17.7251Z" fill="white"/>
<path d="M17.6774 14.2554C17.6774 14.2554 17.8426 15.2716 18.9661 15.8911C19.9574 16.4419 21.0314 16.1101 21.0314 16.1101C20.937 15.7652 20.7744 15.4428 20.5533 15.1619C20.3322 14.8809 20.057 14.6471 19.744 14.4744C19.4324 14.2997 19.0884 14.1902 18.7332 14.1526C18.3779 14.1149 18.0187 14.1499 17.6774 14.2554Z" fill="white"/>
<path d="M20.2603 16.3469C19.7854 16.3524 19.3169 16.2373 18.8986 16.0123C17.731 15.3679 17.5493 14.3215 17.541 14.2775C17.5362 14.2461 17.5423 14.2141 17.5584 14.1867C17.5744 14.1594 17.5994 14.1384 17.6292 14.1274C17.9894 14.0131 18.3693 13.9741 18.7452 14.013C19.1211 14.0518 19.485 14.1676 19.8142 14.3532C20.1452 14.5348 20.4359 14.7815 20.669 15.0785C20.9021 15.3755 21.0726 15.7165 21.1704 16.0811C21.1778 16.1148 21.1723 16.1501 21.155 16.1799C21.1377 16.2098 21.1097 16.232 21.0768 16.2422C20.8105 16.3134 20.5359 16.3485 20.2603 16.3469ZM17.8426 14.3504C18.0381 14.9614 18.4651 15.4714 19.0322 15.7713C19.7619 16.1748 20.555 16.0729 20.8634 16.0095C20.6581 15.41 20.2403 14.9065 19.6889 14.5941C19.126 14.2838 18.4668 14.1968 17.8426 14.3504Z" fill="white"/>
<path d="M24.395 14.2554C24.395 14.2554 24.2298 15.2716 23.1063 15.8911C22.1149 16.4419 21.041 16.1101 21.041 16.1101C21.1358 15.7652 21.2987 15.4429 21.52 15.162C21.7414 14.881 22.0167 14.6473 22.3297 14.4744C22.6412 14.2999 22.9849 14.1905 23.3399 14.1529C23.6949 14.1152 24.0539 14.1501 24.395 14.2554Z" fill="white"/>
<path d="M21.8107 16.3469C21.5355 16.3486 21.2614 16.3134 20.9956 16.2422C20.9626 16.232 20.9347 16.2098 20.9174 16.1799C20.9 16.1501 20.8945 16.1148 20.9019 16.0811C20.9996 15.7167 21.17 15.3757 21.4028 15.0788C21.6357 14.7818 21.9261 14.535 22.2568 14.3532C22.5862 14.1674 22.9503 14.0515 23.3265 14.0127C23.7026 13.9738 24.0828 14.0129 24.4432 14.1274C24.4727 14.1387 24.4973 14.1597 24.5131 14.1871C24.5289 14.2144 24.5349 14.2463 24.5299 14.2775C24.523 14.3215 24.3413 15.3679 23.1724 16.0123C22.7541 16.2374 22.2856 16.3526 21.8107 16.3469ZM21.2035 16.0095C21.5119 16.0729 22.3049 16.1748 23.0347 15.7713C23.6054 15.4738 24.0358 14.9633 24.2325 14.3504C23.6105 14.1986 22.9541 14.2856 22.3931 14.5941C21.836 14.9036 21.4125 15.4075 21.2035 16.0095Z" fill="white"/>
<path d="M10.135 15.4891C10.135 15.4891 10.3002 16.5052 11.4223 17.1248C12.4137 17.6755 13.4876 17.3437 13.4876 17.3437C13.3929 16.999 13.2302 16.6768 13.0091 16.3959C12.788 16.115 12.513 15.8811 12.2003 15.708C11.8888 15.5335 11.5451 15.4242 11.1901 15.3865C10.8351 15.3489 10.4761 15.3838 10.135 15.4891Z" fill="white"/>
<path d="M12.718 17.5791C12.2431 17.5847 11.7745 17.4695 11.3562 17.2446C10.1887 16.6002 10.0056 15.5538 9.99868 15.5097C9.99375 15.4786 9.99968 15.4467 10.0155 15.4193C10.0313 15.392 10.056 15.371 10.0854 15.3597C10.4458 15.2452 10.826 15.2061 11.2021 15.245C11.5783 15.2838 11.9424 15.3997 12.2719 15.5855C12.6032 15.7673 12.8944 16.0142 13.1279 16.3114C13.3614 16.6085 13.5325 16.9498 13.6308 17.3148C13.6382 17.3487 13.6325 17.3841 13.6148 17.4139C13.5972 17.4438 13.569 17.4659 13.5358 17.4759C13.2691 17.5469 12.994 17.5816 12.718 17.5791ZM10.3002 15.5827C10.4957 16.1936 10.9228 16.7037 11.4898 17.0036C12.2195 17.407 13.0126 17.3052 13.321 17.2418C13.1134 16.6411 12.6925 16.1375 12.1383 15.8264C11.5776 15.5183 10.9216 15.4318 10.3002 15.5841V15.5827Z" fill="white"/>
<path d="M16.8512 15.4891C16.8512 15.4891 16.686 16.5052 15.5639 17.1248C14.5726 17.6755 13.4986 17.3437 13.4986 17.3437C13.5934 16.999 13.7561 16.6768 13.9771 16.3959C14.1982 16.115 14.4732 15.8811 14.786 15.708C15.0974 15.5335 15.4411 15.4242 15.7961 15.3865C16.1512 15.3489 16.5101 15.3838 16.8512 15.4891Z" fill="white"/>
<path d="M14.2683 17.5791C13.9931 17.5809 13.719 17.5457 13.4532 17.4745C13.42 17.4646 13.3917 17.4424 13.3741 17.4126C13.3565 17.3827 13.3508 17.3473 13.3582 17.3134C13.4563 16.949 13.627 16.6081 13.8601 16.3111C14.0931 16.0142 14.3837 15.7674 14.7144 15.5855C15.0438 15.3997 15.4079 15.2838 15.7841 15.245C16.1603 15.2061 16.5404 15.2452 16.9008 15.3597C16.9303 15.371 16.955 15.392 16.9708 15.4193C16.9866 15.4467 16.9925 15.4786 16.9876 15.5097C16.9876 15.5538 16.7976 16.6002 15.63 17.2446C15.2117 17.4695 14.7432 17.5847 14.2683 17.5791ZM13.6652 17.2418C13.9736 17.3052 14.7667 17.407 15.4964 17.0036C16.0643 16.7043 16.4919 16.1941 16.6874 15.5827C16.0654 15.4309 15.409 15.5178 14.8479 15.8264C14.2934 16.1378 13.8726 16.642 13.6652 17.2432V17.2418Z" fill="white"/>
<path d="M2.59123 15.4891C2.59123 15.4891 2.75645 16.5052 3.87996 17.1248C4.87129 17.6755 5.94523 17.3437 5.94523 17.3437C5.85039 16.9989 5.68751 16.6765 5.46619 16.3956C5.24486 16.1147 4.96956 15.8809 4.65651 15.708C4.34504 15.5335 4.00136 15.4242 3.64634 15.3865C3.29132 15.3489 2.93236 15.3838 2.59123 15.4891Z" fill="white"/>
<path d="M5.17557 17.5791C4.70065 17.5848 4.23207 17.4697 3.81387 17.2446C2.64492 16.6002 2.46318 15.5538 2.45629 15.5097C2.45137 15.4786 2.45729 15.4467 2.47309 15.4193C2.48888 15.392 2.51357 15.371 2.54304 15.3597C2.90345 15.2452 3.28359 15.2061 3.65976 15.245C4.03593 15.2838 4.40007 15.3997 4.72947 15.5855C5.06011 15.7673 5.35056 16.0141 5.58339 16.3111C5.81621 16.608 5.98659 16.9489 6.08429 17.3134C6.09171 17.3471 6.08621 17.3824 6.06887 17.4122C6.05153 17.442 6.02362 17.4643 5.99066 17.4745C5.72487 17.5457 5.45073 17.5809 5.17557 17.5791ZM2.75369 15.5841C2.94917 16.1946 3.37559 16.7046 3.94192 17.005C4.67165 17.4084 5.46471 17.3065 5.77312 17.2432C5.56674 16.6422 5.14618 16.1383 4.59179 15.8278C4.03125 15.5192 3.37529 15.4322 2.75369 15.5841Z" fill="white"/>
<path d="M9.30887 15.4891C9.30887 15.4891 9.14365 16.5052 8.02014 17.1248C7.02881 17.6755 5.95487 17.3437 5.95487 17.3437C6.04927 16.9989 6.21182 16.6765 6.43294 16.3955C6.65405 16.1146 6.92923 15.8808 7.24223 15.708C7.55388 15.5333 7.89779 15.4239 8.25306 15.3862C8.60833 15.3486 8.96755 15.3836 9.30887 15.4891Z" fill="white"/>
<path d="M6.72591 17.5791C6.4503 17.5808 6.17571 17.5456 5.90944 17.4745C5.87648 17.4643 5.84858 17.442 5.83124 17.4122C5.8139 17.3824 5.80839 17.3471 5.81581 17.3134C5.9136 16.9488 6.08416 16.6077 6.31723 16.3108C6.55031 16.0138 6.84107 15.7671 7.17201 15.5855C7.50205 15.3994 7.86696 15.2834 8.24388 15.2448C8.62081 15.2061 9.00165 15.2457 9.36257 15.361C9.3923 15.3721 9.4173 15.3931 9.43335 15.4204C9.44941 15.4477 9.45553 15.4798 9.45069 15.5111C9.44243 15.5552 9.26069 16.6016 8.09312 17.246C7.67308 17.4713 7.20255 17.586 6.72591 17.5791ZM6.12285 17.2418C6.43126 17.3052 7.22433 17.407 7.95406 17.0036C8.52203 16.7049 8.94943 16.1944 9.14365 15.5827C8.52382 15.4302 7.86931 15.5161 7.30982 15.8234C6.75032 16.1307 6.32668 16.6369 6.12285 17.2418Z" fill="white"/>
<path d="M5.02688 6.97742C5.12012 7.01046 5.22173 7.01137 5.31555 6.98C5.40936 6.94863 5.48999 6.88679 5.54461 6.80431C5.59923 6.72183 5.62469 6.62346 5.61695 6.52484C5.60921 6.42622 5.56871 6.33302 5.50189 6.26008C4.95115 5.66666 4.47201 4.4151 4.64549 3.42928C4.72259 2.99557 4.92086 2.69404 5.2334 2.53157C6.2922 1.98083 7.17751 3.41275 7.18577 3.42652C7.21469 3.47879 7.25386 3.52468 7.30095 3.56143C7.34804 3.59818 7.40207 3.62504 7.45979 3.64039C7.51752 3.65574 7.57775 3.65927 7.63687 3.65076C7.696 3.64225 7.75279 3.62188 7.80385 3.59088C7.8549 3.55987 7.89917 3.51887 7.93398 3.47033C7.9688 3.4218 7.99344 3.36672 8.00644 3.30842C8.01944 3.25012 8.02053 3.1898 8.00963 3.13107C7.99874 3.07234 7.97609 3.01641 7.94304 2.96666C7.48868 2.2204 6.25365 1.00465 4.82586 1.74401C4.26273 2.03591 3.89786 2.57012 3.77394 3.27507C3.54952 4.54452 4.14569 6.09486 4.85064 6.85488C4.89799 6.91007 4.95865 6.95225 5.02688 6.97742Z" fill="white"/>
<path d="M5.17696 7.13851C5.10982 7.13861 5.04318 7.12696 4.98006 7.10409C4.89195 7.07217 4.81268 7.01979 4.74876 6.95126C4.02178 6.16095 3.4077 4.55967 3.63764 3.24891C3.77532 2.49578 4.15946 1.93127 4.76252 1.6201C6.27706 0.832543 7.58368 2.1075 8.06696 2.89231C8.14145 3.02372 8.16183 3.17898 8.12378 3.32517C8.08574 3.47135 7.99226 3.59698 7.86315 3.67541C7.73405 3.75383 7.57948 3.7789 7.43221 3.74529C7.28494 3.71168 7.15655 3.62204 7.07425 3.49537C7.06599 3.48298 6.24126 2.16396 5.30225 2.65136C5.02688 2.78904 4.85615 3.06441 4.78731 3.44993C4.62071 4.39445 5.08471 5.59506 5.61342 6.1637C5.71633 6.27615 5.77118 6.4244 5.76625 6.57675C5.75816 6.72519 5.69363 6.86492 5.58586 6.96731C5.47809 7.0697 5.33525 7.12701 5.18659 7.12749L5.17696 7.13851ZM5.07369 6.84524C5.13794 6.86799 5.20795 6.86861 5.27259 6.847C5.33724 6.8254 5.39281 6.78281 5.43047 6.726C5.46813 6.66919 5.48572 6.60143 5.48045 6.53347C5.47518 6.46552 5.44735 6.40127 5.40138 6.35095C4.83136 5.73275 4.32881 4.42336 4.51056 3.40312C4.59455 2.92398 4.81622 2.5894 5.17007 2.40628C6.34452 1.79771 7.29455 3.33703 7.30419 3.35355C7.34742 3.42049 7.41508 3.4679 7.49276 3.48568C7.57044 3.50346 7.65199 3.4902 7.72003 3.44872C7.78807 3.40725 7.83723 3.34085 7.85703 3.26366C7.87682 3.18647 7.86569 3.1046 7.82601 3.0355C7.39506 2.3278 6.22611 1.17125 4.88919 1.8638C4.36461 2.13917 4.02591 2.63071 3.90888 3.2971C3.69271 4.52387 4.26961 6.02326 4.95115 6.76401C4.98474 6.80069 5.02682 6.82859 5.07369 6.84524Z" fill="white"/>
<path d="M4.43895 9.70357L12.4247 12.5509C12.5569 12.5984 12.6979 12.6163 12.8377 12.6036C12.9776 12.5909 13.113 12.5477 13.2345 12.4771C13.3559 12.4066 13.4605 12.3103 13.5408 12.1951C13.6212 12.0799 13.6754 11.9485 13.6996 11.8102L13.9117 10.6178C13.9982 10.1319 14.2061 9.67583 14.5162 9.29188C14.8262 8.90794 15.2283 8.60861 15.6851 8.42173L17.5438 7.66584L17.0536 6.56436L14.5106 7.25278L15.1687 3.55457L8.00912 1.00189L3.91713 8.33223C3.85005 8.45456 3.81033 8.59 3.80072 8.72919C3.7911 8.86837 3.81182 9.00798 3.86144 9.13838C3.91105 9.26877 3.98839 9.38684 4.0881 9.48442C4.18781 9.582 4.30752 9.65678 4.43895 9.70357Z" fill="white"/>
<path d="M12.7482 12.745C12.622 12.7448 12.4967 12.723 12.3779 12.6803L4.39215 9.833C4.24071 9.77949 4.10282 9.69351 3.98812 9.58109C3.87342 9.46866 3.78469 9.33252 3.72816 9.18219C3.67162 9.03187 3.64864 8.87099 3.66083 8.71085C3.67302 8.55071 3.72009 8.39517 3.79872 8.25513L7.8921 0.926165C7.9078 0.897877 7.93297 0.876024 7.96318 0.864443C7.9934 0.852861 8.02673 0.852289 8.05732 0.862829L15.2169 3.41551C15.2477 3.42642 15.2736 3.44792 15.29 3.47617C15.3064 3.50442 15.3122 3.53757 15.3064 3.56971L14.6868 7.05452L17.0178 6.42667C17.0495 6.41828 17.0831 6.42144 17.1126 6.43556C17.1421 6.44969 17.1656 6.47388 17.1789 6.50378L17.6691 7.60526C17.6763 7.62224 17.68 7.6405 17.68 7.65895C17.68 7.6774 17.6763 7.69566 17.6691 7.71265C17.6623 7.72994 17.6521 7.74569 17.6391 7.75894C17.6261 7.77219 17.6105 7.78267 17.5934 7.78975L15.7332 8.5484C15.2972 8.72525 14.9134 9.01015 14.6178 9.37627C14.3223 9.74239 14.1248 10.1777 14.0439 10.6412L13.8318 11.8336C13.7871 12.0891 13.6536 12.3206 13.4548 12.4874C13.2561 12.6541 13.0049 12.7454 12.7455 12.745H12.7482ZM4.48715 9.57828L12.4729 12.427C12.5863 12.4677 12.7073 12.4832 12.8273 12.4722C12.9473 12.4612 13.0635 12.4242 13.1676 12.3635C13.2718 12.3029 13.3614 12.2203 13.4303 12.1213C13.4991 12.0224 13.5455 11.9096 13.5661 11.7909L13.7781 10.5985C13.867 10.0894 14.084 9.61138 14.4087 9.20935C14.7334 8.80732 15.1551 8.49457 15.6341 8.30056L17.3621 7.59424L16.9779 6.72958L14.5492 7.38221C14.5267 7.38838 14.5031 7.38878 14.4805 7.38336C14.4579 7.37794 14.437 7.36687 14.4198 7.3512C14.4026 7.33552 14.3897 7.31575 14.3822 7.29373C14.3747 7.2717 14.373 7.24814 14.3771 7.22525L15.0159 3.64544L8.07797 1.16711L4.04243 8.39557C3.98357 8.50055 3.94835 8.61712 3.93925 8.73713C3.93015 8.85714 3.94739 8.97769 3.98975 9.09034C4.03211 9.203 4.09857 9.30504 4.18449 9.38932C4.27041 9.4736 4.3737 9.53809 4.48715 9.57828Z" fill="white"/>
<path d="M17.6496 7.96894L17.7505 7.9365C17.9098 7.8853 17.9974 7.71469 17.9462 7.55543L17.5421 6.29838C17.4909 6.13911 17.3203 6.05151 17.161 6.1027L17.0601 6.13515C16.9008 6.18634 16.8132 6.35695 16.8644 6.51622L17.2685 7.77327C17.3197 7.93253 17.4903 8.02014 17.6496 7.96894Z" fill="white"/>
<path d="M17.5562 8.12295C17.4627 8.12293 17.3716 8.09336 17.296 8.03846C17.2203 7.98356 17.1639 7.90615 17.1349 7.81729L16.7315 6.56436C16.6972 6.45353 16.7078 6.33365 16.7612 6.23062C16.8145 6.12758 16.9062 6.04964 17.0165 6.01362L17.117 5.98195C17.2278 5.94767 17.3477 5.95834 17.4507 6.01166C17.5538 6.06498 17.6317 6.15668 17.6677 6.26696L18.0711 7.52265C18.1054 7.63348 18.0948 7.75335 18.0414 7.85639C17.9881 7.95943 17.8964 8.03737 17.7861 8.07339L17.6856 8.10643C17.6435 8.11819 17.5999 8.12376 17.5562 8.12295ZM17.2519 6.22703C17.2346 6.22708 17.2174 6.22987 17.201 6.23529L17.1005 6.26834C17.0588 6.28192 17.0242 6.31135 17.0041 6.35026C16.984 6.38917 16.98 6.43443 16.9931 6.47624L17.3979 7.7333C17.4114 7.7749 17.4409 7.80942 17.4799 7.8293C17.5189 7.84917 17.5641 7.85278 17.6058 7.83932L17.7063 7.80765C17.7482 7.79408 17.7831 7.76443 17.8032 7.72521C17.8233 7.68598 17.8271 7.64037 17.8137 7.59837L17.4102 6.34269C17.4038 6.32183 17.3931 6.30251 17.3789 6.28594C17.3647 6.26936 17.3473 6.25587 17.3276 6.24631C17.3043 6.23382 17.2783 6.2272 17.2519 6.22703Z" fill="white"/>
<path d="M20.9281 10.0478C21.1677 11.0474 20.8923 11.6573 20.23 11.7C19.2277 11.7702 18.6591 11.1369 18.9041 10.1428C19.353 8.32673 18.4608 7.13851 18.4608 7.13851C18.4608 7.13851 20.6279 8.77696 20.9281 10.0478Z" fill="white"/>
<path d="M20.0868 11.8473C19.6187 11.8473 19.2332 11.6917 18.9854 11.404C18.7196 11.0887 18.6439 10.6302 18.7706 10.1139C19.1974 8.38868 18.3575 7.23626 18.3493 7.22249C18.3294 7.19584 18.3198 7.16289 18.3224 7.12973C18.3249 7.09658 18.3393 7.06546 18.363 7.04213C18.3865 7.01865 18.4177 7.00446 18.4509 7.00218C18.484 6.9999 18.5169 7.00969 18.5434 7.02974C18.6329 7.0972 20.7463 8.70949 21.0616 10.012C21.2145 10.6481 21.1704 11.1548 20.935 11.477C20.8532 11.5849 20.7484 11.6733 20.6281 11.7355C20.5077 11.7976 20.375 11.8321 20.2397 11.8363C20.1901 11.8446 20.1378 11.8473 20.0868 11.8473ZM18.9014 7.67823C19.2094 8.47688 19.2576 9.35234 19.0391 10.18C18.933 10.6137 18.9867 10.9758 19.1974 11.2264C19.408 11.477 19.7729 11.5981 20.2218 11.5665C20.3172 11.5649 20.4111 11.5417 20.4963 11.4985C20.5814 11.4553 20.6556 11.3934 20.7133 11.3172C20.8978 11.0667 20.9267 10.6288 20.7959 10.0781C20.6004 9.25197 19.5512 8.23998 18.9014 7.67823Z" fill="white"/>
<path d="M26.8554 20.1263H0.137685C0.101169 20.1263 0.0661478 20.1118 0.0403269 20.086C0.0145059 20.0602 0 20.0251 0 19.9886C0 19.9521 0.0145059 19.9171 0.0403269 19.8913C0.0661478 19.8655 0.101169 19.8509 0.137685 19.8509H26.8623C26.8988 19.8509 26.9339 19.8655 26.9597 19.8913C26.9855 19.9171 27 19.9521 27 19.9886C27 20.0251 26.9855 20.0602 26.9597 20.086C26.9339 20.1118 26.8988 20.1263 26.8623 20.1263H26.8554Z" fill="white"/>
</svg>
